<?xml version="1.0" encoding="utf-8"?>
<!-- Generator: Adobe Illustrator 20.1.0, SVG Export Plug-In . SVG Version: 6.00 Build 0)  -->
<svg version="1.1" id="Layer_2" xmlns="http://www.w3.org/2000/svg" xmlns:xlink="http://www.w3.org/1999/xlink" x="0px" y="0px"
	 viewBox="0 0 77.3 106.4" style="enable-background:new 0 0 77.3 106.4;" xml:space="preserve">
<style type="text/css">
	.st0{fill:none;stroke:#FFFFFF;stroke-width:2.5;stroke-miterlimit:10;}
</style>
<g>
	<path class="st0" d="M26.1,106.4V83c0,0,0.8-6.9-5.7-13.3C13.8,63.4,3.5,52.9,3.5,52.9c-2-2-2-5.2,0-7.2l0.4-0.4c2-2,5.2-2,7.2,0
		L23,57.3c0,0,3.2,2.9,2.7-2.1c-0.5-5-1.3-12.3-1.3-12.3l-3.1-30C21,10.1,23,7.7,25.8,7.4l0.5-0.1c2.8-0.3,5.3,1.7,5.6,4.5l3.4,33
		l1.5-0.5V7.1c0-3.5,1.8-5.4,4.1-5.4h2.4c2.3,0,4.1,1.9,4.1,2.7v37.3v3.2l0.5-0.1l3-32.6c0.3-3.5,2.4-6.2,4.7-6L58,6.3
		c2.3,0.2,3.8,3.2,3.5,6.8l-3.4,37.1l1,1l5.7-28.4c0.6-2.8,3.2-4.5,6-4l0.5,0.1c2.8,0.6,4.5,3.2,4,6l-6.3,31.3l-0.2,3.4v46.7"/>
	<line class="st0" x1="26.1" y1="88.1" x2="68.4" y2="88.1"/>
	<line class="st0" x1="26.1" y1="98.6" x2="68.4" y2="98.6"/>
	<circle class="st0" cx="62.6" cy="93.3" r="2.1"/>
	<path class="st0" d="M25,57.9c1.9-0.7,3.9-1.1,6-1.1c6.1,0,11.4,3.1,14.6,7.7"/>
</g>
</svg>
