<?xml version="1.0" encoding="utf-8"?>
<!-- Generator: Adobe Illustrator 19.1.0, SVG Export Plug-In . SVG Version: 6.00 Build 0)  -->
<svg version="1.1" id="Layer_1" xmlns="http://www.w3.org/2000/svg" xmlns:xlink="http://www.w3.org/1999/xlink" x="0px" y="0px"
	 viewBox="0 0 355.1 267.7" style="enable-background:new 0 0 355.1 267.7;" xml:space="preserve">
<style type="text/css">
	.st0{fill:none;}
	.st1{clip-path:url(#SVGID_2_);fill:none;}
	.st2{clip-path:url(#SVGID_2_);}
	.st3{fill:none;stroke:#000000;stroke-width:5;stroke-miterlimit:10;}
	.st4{fill:#FFFFFF;stroke:#000000;stroke-width:5;stroke-miterlimit:10;}
	.st5{fill:#FFFFFF;}
</style>
<g>
	<g>
		<circle class="st0" cx="195.1" cy="142.6" r="78.8"/>
		<g>
			<defs>
				<path id="SVGID_1_" d="M195.1,63.8v78.8h78.8C273.9,99.1,238.6,63.8,195.1,63.8z"/>
			</defs>
			<clipPath id="SVGID_2_">
				<use xlink:href="#SVGID_1_"  style="overflow:visible;"/>
			</clipPath>
			<path class="st1" d="M195.1,63.8v78.8h78.8C273.9,99.1,238.6,63.8,195.1,63.8z"/>
			<g class="st2">
				<line class="st3" x1="195.1" y1="265.2" x2="300.2" y2="160.1"/>
			</g>
			<g class="st2">
				<line class="st3" x1="195.1" y1="247.6" x2="300.2" y2="142.6"/>
			</g>
			<g class="st2">
				<line class="st3" x1="195.1" y1="230.1" x2="300.2" y2="125.1"/>
			</g>
			<g class="st2">
				<line class="st3" x1="195.1" y1="212.6" x2="300.2" y2="107.6"/>
			</g>
			<g class="st2">
				<line class="st3" x1="195.1" y1="195.1" x2="300.2" y2="90.1"/>
			</g>
			<g class="st2">
				<line class="st3" x1="195.1" y1="177.6" x2="300.2" y2="72.5"/>
			</g>
			<g class="st2">
				<line class="st3" x1="195.1" y1="160.1" x2="300.2" y2="55"/>
			</g>
			<g class="st2">
				<line class="st3" x1="195.1" y1="142.6" x2="300.2" y2="37.5"/>
			</g>
			<g class="st2">
				<line class="st3" x1="195.1" y1="125.1" x2="300.2" y2="20"/>
			</g>
			<g class="st2">
				<line class="st3" x1="195.1" y1="107.6" x2="300.2" y2="2.5"/>
			</g>
			<g class="st2">
				<line class="st3" x1="195.1" y1="90.1" x2="300.2" y2="-15"/>
			</g>
			<g class="st2">
				<line class="st3" x1="195.1" y1="72.5" x2="300.2" y2="-32.5"/>
			</g>
			<g class="st2">
				<line class="st3" x1="195.1" y1="55" x2="300.2" y2="-50"/>
			</g>
			<g class="st2">
				<line class="st3" x1="195.1" y1="37.5" x2="300.2" y2="-67.5"/>
			</g>
			<g class="st2">
				<line class="st3" x1="195.1" y1="20" x2="300.2" y2="-85.1"/>
			</g>
			<g class="st2">
				<line class="st3" x1="195.1" y1="2.5" x2="300.2" y2="-102.6"/>
			</g>
		</g>
		<circle class="st3" cx="195.1" cy="142.6" r="78.8"/>
		<rect x="195.1" y="2.5" class="st3" width="157.5" height="140.1"/>
		<rect x="282.7" y="37.5" class="st4" width="52.5" height="35"/>
		<line class="st3" x1="282.7" y1="72.5" x2="258.9" y2="96.3"/>
		<line class="st3" x1="300.2" y1="90.1" x2="335.2" y2="90.1"/>
		<line class="st3" x1="300.2" y1="107.6" x2="317.7" y2="107.6"/>
		<line class="st3" x1="300.2" y1="20" x2="317.7" y2="20"/>
	</g>
	<g>
		<rect x="2.5" y="142.6" class="st5" width="192.6" height="122.6"/>
		<polyline class="st4" points="195.1,265.2 98.8,195.1 2.5,265.2 		"/>
		<polyline class="st4" points="2.5,142.6 98.8,212.6 195.1,142.6 		"/>
		<rect x="2.5" y="142.6" class="st3" width="192.6" height="122.6"/>
	</g>
</g>
</svg>
