<?xml version="1.0" encoding="utf-8"?>
<!-- Generator: Adobe Illustrator 19.1.0, SVG Export Plug-In . SVG Version: 6.00 Build 0)  -->
<svg version="1.1" id="Layer_1" xmlns="http://www.w3.org/2000/svg" xmlns:xlink="http://www.w3.org/1999/xlink" x="0px" y="0px"
	 viewBox="0 0 323.6 189.6" style="enable-background:new 0 0 323.6 189.6;" xml:space="preserve">
<style type="text/css">
	.st0{fill:none;}
	.st1{fill:#FFFFFF;}
	.st2{fill:none;stroke:#000000;stroke-width:5;stroke-miterlimit:10;}
</style>
<g>
	<path class="st0" d="M122.8,151.9l-21.6-9.8l-0.7-0.3c-5.4,11.6-17.2,19.7-30.8,19.7c-13.7,0-25.4-8.1-30.8-19.7l-22.3,10.2
		c-0.1,0-0.1,0.1-0.2,0.1c4.8,9.1,7.2,25.1,7.2,35.1h92.1c0.1-10,2.5-26,7.2-35.1C122.9,151.9,122.9,151.9,122.8,151.9z"/>
	<path class="st0" d="M16.4,152c-0.1,0.1-0.3,0.1-0.4,0.2c0,0,0,0,0,0c-0.1,0-0.1,0.1-0.2,0.1c-0.2,0.1-0.3,0.2-0.5,0.3
		c-0.2,0.1-0.3,0.2-0.5,0.4c-0.2,0.1-0.3,0.2-0.4,0.4c-0.2,0.1-0.3,0.3-0.5,0.4c-0.1,0.1-0.3,0.3-0.4,0.4c-0.2,0.2-0.3,0.3-0.5,0.5
		c-0.1,0.1-0.3,0.3-0.4,0.4c-0.2,0.2-0.3,0.4-0.4,0.6c-0.1,0.1-0.2,0.3-0.3,0.4c-0.1,0.2-0.3,0.4-0.4,0.6c-0.1,0.1-0.2,0.3-0.3,0.4
		c-0.1,0.2-0.2,0.5-0.4,0.7c-0.1,0.1-0.1,0.2-0.2,0.3c-0.2,0.4-0.3,0.7-0.4,1L4,184.1l-1,3h20.7C23.6,177,21.2,161.1,16.4,152
		C16.4,152,16.4,152,16.4,152z"/>
	<path class="st0" d="M129.1,159.2c-0.1-0.3-0.2-0.7-0.4-1c-0.1-0.1-0.1-0.2-0.2-0.3c-0.1-0.2-0.2-0.5-0.4-0.7
		c-0.1-0.1-0.2-0.3-0.3-0.4c-0.1-0.2-0.3-0.4-0.4-0.6c-0.1-0.1-0.2-0.3-0.3-0.4c-0.1-0.2-0.3-0.4-0.4-0.6c-0.1-0.1-0.3-0.3-0.4-0.4
		c-0.2-0.2-0.3-0.3-0.5-0.5c-0.1-0.1-0.3-0.3-0.4-0.4c-0.2-0.2-0.3-0.3-0.5-0.4c-0.1-0.1-0.3-0.2-0.4-0.4c-0.2-0.1-0.3-0.2-0.5-0.4
		c-0.2-0.1-0.3-0.2-0.5-0.3c-0.1,0-0.1-0.1-0.2-0.1c0,0,0,0,0,0c-0.1-0.1-0.3-0.2-0.4-0.2c0,0,0,0,0,0v0c-4.8,9.1-7.2,25.1-7.2,35.1
		h20.7l-1-3L129.1,159.2z"/>
	<path class="st0" d="M311.3,148.7c-0.1-0.1-0.1-0.3-0.2-0.4c-0.1-0.3-0.2-0.5-0.4-0.8c-0.1-0.2-0.2-0.3-0.3-0.5
		c-0.1-0.2-0.3-0.4-0.4-0.7c-0.1-0.2-0.3-0.4-0.4-0.5c-0.2-0.2-0.3-0.4-0.5-0.6c-0.1-0.2-0.3-0.4-0.5-0.5c-0.2-0.2-0.3-0.4-0.5-0.5
		c-0.2-0.2-0.3-0.3-0.5-0.5c-0.2-0.2-0.4-0.3-0.5-0.5c-0.2-0.2-0.4-0.3-0.5-0.4c-0.2-0.1-0.4-0.3-0.6-0.4c-0.2-0.1-0.4-0.2-0.6-0.4
		c-0.1,0-0.1-0.1-0.2-0.1c0,0,0,0,0,0c-7.6,4.8-10.7,33.9-11.8,45.3h27.2l-8.8-37.1C311.6,149.5,311.4,149.1,311.3,148.7z"/>
	<path class="st0" d="M305.1,141.8c-0.2-0.1-0.5-0.3-0.7-0.4l-47.2-20.7c0,15.8-11,27.6-27.5,27.6c0,0,0,0,0,0c0,0,0,0,0,0
		c-16.4,0-27.5-11.8-27.5-27.6l2.8-1.2c0.1,0,0.1,0,0.2-0.1c0,0,0,0,0,0c-0.1,0-0.1,0-0.2,0.1c0,0,0,0-0.1,0l-50.1,22
		c-0.2,0.1-0.5,0.2-0.7,0.4c7.6,4.8,10.7,33.9,11.8,45.3h127.2C294.4,175.7,297.5,146.6,305.1,141.8z"/>
	<path class="st0" d="M154.2,141.8C154.2,141.8,154.2,141.8,154.2,141.8c-0.1,0-0.2,0.1-0.2,0.1c-0.2,0.1-0.4,0.2-0.6,0.4
		c-0.2,0.1-0.4,0.3-0.6,0.4c-0.2,0.1-0.4,0.3-0.5,0.4c-0.2,0.2-0.4,0.3-0.5,0.5c-0.2,0.2-0.3,0.3-0.5,0.5c-0.2,0.2-0.4,0.4-0.5,0.6
		c-0.1,0.2-0.3,0.3-0.4,0.5c-0.2,0.2-0.3,0.4-0.5,0.6c-0.1,0.2-0.3,0.3-0.4,0.5c-0.2,0.2-0.3,0.5-0.5,0.7c-0.1,0.2-0.2,0.3-0.3,0.5
		c-0.2,0.3-0.3,0.5-0.4,0.8c-0.1,0.1-0.1,0.3-0.2,0.4c-0.2,0.4-0.3,0.8-0.4,1.2l-8.8,37.1h27.2C165,175.7,161.8,146.6,154.2,141.8z"
		/>
	<path class="st0" d="M2.5,189.3c0-0.1,0-0.2,0-0.3C2.5,189.2,2.5,189.2,2.5,189.3z M293.3,187.1H166.1h-27.2h-2.4l0.3,0.8
		c0,0.2,0.1,0.3,0.1,0.5c0,0.1,0,0.1,0,0.1c0,0.1,0,0.2,0,0.3c0,0.1,0,0.1,0,0.2c0-0.1,0-0.1,0-0.2c0-0.1,0-0.2,0-0.3
		c0,0,0-0.1,0-0.1c0-0.2-0.1-0.3-0.1-0.5l-0.3-0.8h-20.7H23.7H3l-0.3,0.8c0,0.2-0.1,0.3-0.1,0.5c0,0.1,0,0.1,0,0.2
		c0,0.1,0,0.2,0,0.3c0-0.1,0-0.2,0-0.3c0-0.1,0-0.1,0-0.2c0-0.2,0.1-0.3,0.1-0.5l0.3-0.8l1-3l6.4-24.8c0.1-0.3,0.2-0.7,0.4-1
		c0.1-0.1,0.1-0.2,0.2-0.3c0.1-0.2,0.2-0.5,0.4-0.7c0.1-0.1,0.2-0.3,0.3-0.4c0.1-0.2,0.3-0.4,0.4-0.6c0.1-0.1,0.2-0.3,0.3-0.4
		c0.1-0.2,0.3-0.4,0.4-0.6c0.1-0.1,0.2-0.3,0.4-0.4c0.2-0.2,0.3-0.3,0.5-0.5c0.1-0.1,0.3-0.3,0.4-0.4c0.2-0.2,0.3-0.3,0.5-0.4
		c0.1-0.1,0.3-0.2,0.4-0.4c0.2-0.1,0.3-0.2,0.5-0.4c0.2-0.1,0.3-0.2,0.5-0.3c0.1,0,0.1-0.1,0.2-0.1c0,0,0,0,0,0
		c0.1-0.1,0.3-0.2,0.4-0.2c0,0,0,0,0,0c0.1,0,0.1-0.1,0.2-0.1l21.8-9.9c-3.8-5.9-6-12.9-6-20.4v-57c0-20.7,16.8-37.5,37.5-37.5
		c20.7,0,37.5,16.8,37.5,37.5v57c0,7.6-2.2,14.6-6.1,20.5l21.6,9.8c0.1,0,0.1,0.1,0.2,0.1v0c0,0,0,0,0,0c0.1,0.1,0.3,0.1,0.4,0.2
		c0,0,0,0,0,0c0.1,0,0.1,0.1,0.2,0.1c0.2,0.1,0.3,0.2,0.5,0.3c0.2,0.1,0.3,0.2,0.5,0.4c0.2,0.1,0.3,0.2,0.4,0.4
		c0.2,0.1,0.3,0.3,0.5,0.4c0.1,0.1,0.3,0.3,0.4,0.4c0.2,0.2,0.3,0.3,0.5,0.5c0.1,0.1,0.3,0.3,0.4,0.4c0.2,0.2,0.3,0.4,0.4,0.6
		c0.1,0.1,0.2,0.3,0.3,0.4c0.1,0.2,0.3,0.4,0.4,0.6c0.1,0.1,0.2,0.3,0.3,0.4c0.1,0.2,0.2,0.5,0.4,0.7c0.1,0.1,0.1,0.2,0.2,0.3
		c0.2,0.4,0.3,0.7,0.4,1l6.4,24.8l1,3h2.4l8.8-37.1c0.1-0.4,0.3-0.8,0.4-1.2c0.1-0.1,0.1-0.3,0.2-0.4c0.1-0.3,0.3-0.5,0.4-0.8
		c0.1-0.2,0.2-0.3,0.3-0.5c0.2-0.2,0.3-0.5,0.5-0.7c0.1-0.2,0.2-0.3,0.4-0.5c0.2-0.2,0.3-0.4,0.5-0.6c0.1-0.2,0.3-0.3,0.4-0.5
		c0.2-0.2,0.4-0.4,0.5-0.6c0.2-0.2,0.3-0.3,0.5-0.5c0.2-0.2,0.4-0.3,0.5-0.5c0.2-0.1,0.4-0.3,0.5-0.4c0.2-0.1,0.4-0.3,0.6-0.4
		c0.2-0.1,0.4-0.2,0.6-0.4c0.1,0,0.1-0.1,0.2-0.1c0,0,0,0,0,0c0.2-0.1,0.5-0.3,0.7-0.4l50.1-22c0,0,0,0,0.1,0v-9.2
		c-5.8-7.2-9.9-16.9-11.6-27.9c-0.2,0-0.5,0-0.7,0c-3.4,0-6.2-2.8-6.2-6.2V63.8V39.6v-0.2h0C186.7,19,206,2.5,229.7,2.5
		s42.9,16.5,43.1,36.9h0v0.2v24.2V64v12.3c0,3.4-2.8,6.2-6.2,6.2c-0.3,0-0.5,0-0.7,0c-1.6,11-5.8,20.7-11.6,27.9v9.2c0,0,0,0,0.1,0
		l2.8,1.2v0l47.2,20.7c0.2,0.1,0.5,0.2,0.7,0.4c0,0,0,0,0,0c0.1,0,0.1,0.1,0.2,0.1c0.2,0.1,0.4,0.2,0.6,0.4c0.2,0.1,0.4,0.3,0.6,0.4
		c0.2,0.1,0.4,0.3,0.5,0.4c0.2,0.2,0.4,0.3,0.5,0.5c0.2,0.2,0.3,0.3,0.5,0.5c0.2,0.2,0.3,0.4,0.5,0.5c0.2,0.2,0.3,0.3,0.5,0.5
		c0.2,0.2,0.3,0.4,0.5,0.6c0.1,0.2,0.3,0.4,0.4,0.5c0.2,0.2,0.3,0.4,0.4,0.7c0.1,0.2,0.2,0.3,0.3,0.5c0.1,0.3,0.3,0.5,0.4,0.8
		c0.1,0.1,0.2,0.3,0.2,0.4c0.2,0.4,0.3,0.8,0.4,1.2l8.8,37.1H293.3z"/>
	<path class="st1" d="M44.5,139.2l3.8-1.8c0,0,0-17.6,0-20.3c-4-5.6-6.9-12.7-8.2-20.6c-2.9,0-5.2-2.4-5.2-5.3V80.4
		c0-0.1,0-0.1,0-0.2c0.1-1.9,1.2-3.6,2.7-4.4v-0.7v-5.3c0-2.9,2.4-5.3,5.3-5.3c0.5,0,1.5,0,1.5,0c0,0,0,0,0,0c0,0,0,0,0,0h18v0
		c4,0,7.2-3.2,7.2-7.2c0,4,3.2,7.2,7.2,7.2v0h18c0,0,0,0,0,0s0,0,0,0c0,0,0,0,0,0c0,0,1,0,1.5,0c2.9,0,5.3,2.4,5.3,5.3v5.3v0.7
		c1.6,0.9,2.6,2.5,2.7,4.4c0,0.1,0,0.1,0,0.2v10.7c0,2.9-2.3,5.3-5.2,5.3c-1.3,8-4.1,15.1-8.2,20.6c0,2.8,0,20.3,0,20.3l8.3,3.8
		l1.2,0.5l0.7,0.3c3.8-5.9,6.1-12.9,6.1-20.5v-57c0-20.7-16.8-37.5-37.5-37.5c-20.7,0-37.5,16.8-37.5,37.5v57c0,7.5,2.2,14.5,6,20.4
		l2.6-1.2L44.5,139.2z"/>
	<polygon class="st1" points="41,140.8 38.4,142 16.6,151.9 38.9,141.7 	"/>
	<path class="st1" d="M69.7,155.2c11.2,0,20.8-6.6,25.2-16.1l4.5,2l-8.3-3.8c0,0,0-17.6,0-20.3c-5.5,7.6-13,12.3-21.3,12.3h0
		c-8.3,0-15.9-4.7-21.3-12.3c0,2.8,0,20.3,0,20.3l-3.8,1.8C48.9,148.7,58.5,155.2,69.7,155.2z"/>
	<polygon class="st1" points="122.8,151.9 101.2,142.1 101.2,142.1 	"/>
	
		<rect x="100.5" y="141.9" transform="matrix(-0.9093 -0.4162 0.4162 -0.9093 133.5503 312.8987)" class="st1" width="0.8" height="0"/>
	<path class="st1" d="M69.7,129.3L69.7,129.3c8.3,0,15.9-4.7,21.3-12.3c4-5.6,6.9-12.7,8.2-20.6c2.9,0,5.2-2.4,5.2-5.3V80.4
		c0-0.1,0-0.1,0-0.2c-0.1-1.9-1.2-3.6-2.7-4.4v-0.7v-5.3c0-2.9-2.4-5.3-5.3-5.3c-0.5,0-1.5,0-1.5,0c0,0,0,0,0,0h-18v0
		c-4,0-7.2-3.2-7.2-7.2c0,4-3.2,7.2-7.2,7.2v0h-18c0,0-1,0-1.5,0c-2.9,0-5.3,2.4-5.3,5.3v5.3v0.7c-1.6,0.9-2.6,2.5-2.7,4.4
		c0,0.1,0,0.1,0,0.2v10.7c0,2.9,2.3,5.3,5.2,5.3c1.3,8,4.1,15.1,8.2,20.6C53.8,124.6,61.4,129.3,69.7,129.3z"/>
	<polygon class="st1" points="99.3,141.2 100.5,141.7 100.5,141.7 	"/>
	<path class="st1" d="M205.3,119.4C205.3,119.4,205.3,119.4,205.3,119.4c1.6,12.1,11.9,21.5,24.4,21.5c0.5,0,1,0,1.4-0.1
		c0.3,0,0.6,0,0.9,0c0.7-0.1,1.3-0.2,1.9-0.3c0.1,0,0.2,0,0.3,0c10.4-2,18.5-10.5,19.8-21.1c0,0,0,0,0,0v0c0.1,0,0.1,0,0.2,0.1v-9.2
		c-6.5,8.1-15.2,13-24.6,13c-9.5,0-18.1-4.9-24.6-13v9.2C205.1,119.4,205.2,119.4,205.3,119.4C205.3,119.4,205.3,119.4,205.3,119.4z
		"/>
	<path class="st1" d="M229.7,123.3c9.5,0,18.1-4.9,24.6-13c5.8-7.2,9.9-16.9,11.6-27.9c0.2,0,0.5,0,0.7,0c3.4,0,6.2-2.8,6.2-6.2V64
		v-0.3h0c-0.1-3.3-2.8-5.9-6.1-5.9v-6.2c0-3.4-2.8-6.2-6.2-6.2h-4.1h0c-4.3,0-8.1-2.2-10.3-5.5c-2.2,3.3-6,5.5-10.3,5.5h-36.9
		c-3.4,0-6.2,2.8-6.2,6.2v6.2c-3.3,0-6,2.6-6.1,5.9h0v12.6c0,3.4,2.8,6.2,6.2,6.2c0.3,0,0.5,0,0.7,0c1.6,11,5.8,20.7,11.6,27.9
		C211.6,118.4,220.2,123.3,229.7,123.3z"/>
	<path class="st1" d="M192.8,57.9v-6.2c0-3.4,2.8-6.2,6.2-6.2h36.9c4.3,0,8.1-2.2,10.3-5.5c2.2,3.3,6,5.5,10.3,5.5h0h4.1
		c3.4,0,6.2,2.8,6.2,6.2v6.2c3.3,0,6,2.6,6.1,5.9h0V39.6v-0.2h0C272.6,19,253.4,2.5,229.7,2.5S186.7,19,186.6,39.4h0v0.2v24.2h0
		C186.7,60.5,189.4,57.9,192.8,57.9z"/>
	<path class="st1" d="M254.1,119.4C254.1,119.4,254.1,119.4,254.1,119.4c-1.3,10.6-9.4,19.1-19.8,21.1
		C244.7,138.5,252.8,130,254.1,119.4z"/>
	<path class="st1" d="M231.1,140.8c-0.5,0-0.9,0.1-1.4,0.1c0,0,0,0,0,0C230.2,140.9,230.6,140.9,231.1,140.8z"/>
</g>
<g>
	<path class="st2" d="M44.5,139.2L44.5,139.2l3.8-1.8c0,0,0-17.6,0-20.3c-4-5.6-6.9-12.7-8.2-20.6c-2.9,0-5.2-2.4-5.2-5.3V80.4
		c0-0.1,0-0.1,0-0.2c0.1-1.9,1.2-3.6,2.7-4.4v-0.7v-5.3c0-2.9,2.4-5.3,5.3-5.3c0.5,0,1.5,0,1.5,0c0,0,0,0,0,0c0,0,0,0,0,0h18v0
		c4,0,7.2-3.2,7.2-7.2c0,4,3.2,7.2,7.2,7.2v0h18c0,0,0,0,0,0s0,0,0,0c0,0,0,0,0,0c0,0,1,0,1.5,0c2.9,0,5.3,2.4,5.3,5.3v5.3v0.7
		c1.6,0.9,2.6,2.5,2.7,4.4c0,0.1,0,0.1,0,0.2v10.7c0,2.9-2.3,5.3-5.2,5.3c-1.3,8-4.1,15.1-8.2,20.6c0,2.8,0,20.3,0,20.3l10.2,4.6
		c3.8-5.9,6.1-12.9,6.1-20.5v-57c0-20.7-16.8-37.5-37.5-37.5c-20.7,0-37.5,16.8-37.5,37.5v57c0,7.5,2.2,14.5,6,20.4l2.6-1.2
		L44.5,139.2z"/>
	<path class="st2" d="M16,152.2c0.1-0.1,0.3-0.2,0.4-0.2C16.3,152.1,16.1,152.1,16,152.2z"/>
	<polygon class="st2" points="38.9,141.7 41,140.8 38.4,142 16.6,151.9 	"/>
	<path class="st2" d="M91,117.1c-5.5,7.6-13,12.3-21.3,12.3h0c-8.3,0-15.9-4.7-21.3-12.3c0,2.8,0,20.3,0,20.3l-3.8,1.8
		c4.4,9.5,14,16.1,25.2,16.1c11.2,0,20.8-6.6,25.2-16.1l5.7,2.6l22.3,10.2l-21.6-9.8L91,137.4C91,137.4,91,119.8,91,117.1z"/>
	<path class="st2" d="M44.5,64.4C44.5,64.4,44.5,64.4,44.5,64.4"/>
	<path class="st2" d="M94.9,64.4C94.9,64.4,94.9,64.4,94.9,64.4"/>
	<path class="st2" d="M123,152c0.1,0.1,0.3,0.1,0.4,0.2C123.3,152.1,123.1,152.1,123,152z"/>
	<polyline class="st2" points="44.5,139.2 44.5,139.2 41,140.8 38.9,141.7 	"/>
	<line class="st2" x1="100.5" y1="141.7" x2="94.9" y2="139.2"/>
</g>
<g>
	<path class="st2" d="M205.3,119.4C205.3,119.4,205.3,119.4,205.3,119.4c1.6,12.1,11.9,21.5,24.4,21.5c0.5,0,1,0,1.4-0.1
		c0.3,0,0.6,0,0.9,0c0.7-0.1,1.3-0.2,1.9-0.3c0.1,0,0.2,0,0.3,0c10.4-2,18.5-10.5,19.8-21.1c0,0,0,0,0,0v0c0.1,0,0.1,0,0.2,0.1v-9.2
		c-6.5,8.1-15.2,13-24.6,13c-9.5,0-18.1-4.9-24.6-13v9.2C205.1,119.4,205.2,119.4,205.3,119.4C205.3,119.4,205.3,119.4,205.3,119.4z
		"/>
	<path class="st2" d="M254.3,110.3c5.8-7.2,9.9-16.9,11.6-27.9c0.2,0,0.5,0,0.7,0c3.4,0,6.2-2.8,6.2-6.2V64v-0.3h0
		c-0.1-3.3-2.8-5.9-6.1-5.9v-6.2c0-3.4-2.8-6.2-6.2-6.2h-4.1l0,0h0c-4.3,0-8.1-2.2-10.3-5.5c-2.2,3.3-6,5.5-10.3,5.5h-36.9
		c-3.4,0-6.2,2.8-6.2,6.2v6.2c-3.3,0-6,2.6-6.1,5.9h0v12.6c0,3.4,2.8,6.2,6.2,6.2c0.3,0,0.5,0,0.7,0c1.6,11,5.8,20.7,11.6,27.9"/>
	<path class="st2" d="M192.8,57.9v-6.2c0-3.4,2.8-6.2,6.2-6.2h36.9c4.3,0,8.1-2.2,10.3-5.5c2.2,3.3,6,5.5,10.3,5.5h0l0,0h4.1
		c3.4,0,6.2,2.8,6.2,6.2v6.2c3.3,0,6,2.6,6.1,5.9h0V39.6v-0.2h0C272.6,19,253.4,2.5,229.7,2.5S186.7,19,186.6,39.4h0v0.2v24.2h0
		C186.7,60.5,189.4,57.9,192.8,57.9z"/>
	<path class="st2" d="M153.4,142.3c0.2-0.1,0.4-0.2,0.6-0.4C153.8,142.1,153.6,142.2,153.4,142.3z"/>
	<path class="st2" d="M305.3,142c0.2,0.1,0.4,0.2,0.6,0.4C305.7,142.2,305.5,142.1,305.3,142z"/>
	<path class="st2" d="M148.1,148.7c0.1-0.1,0.1-0.3,0.2-0.4C148.2,148.5,148.1,148.6,148.1,148.7z"/>
	<path class="st2" d="M149.5,146.3c0.1-0.2,0.2-0.3,0.4-0.5C149.7,146,149.6,146.2,149.5,146.3z"/>
	<path class="st2" d="M152.4,143.1c0.2-0.1,0.4-0.3,0.5-0.4C152.7,142.9,152.5,143,152.4,143.1z"/>
	<path class="st2" d="M150.3,145.2c0.1-0.2,0.3-0.3,0.4-0.5C150.6,144.8,150.5,145,150.3,145.2z"/>
	<path class="st2" d="M151.3,144.1c0.2-0.2,0.3-0.3,0.5-0.5C151.6,143.8,151.5,143.9,151.3,144.1z"/>
	<path class="st2" d="M148.7,147.5c0.1-0.2,0.2-0.3,0.3-0.5C148.9,147.2,148.8,147.4,148.7,147.5z"/>
	<path class="st2" d="M310.3,147c0.1,0.2,0.2,0.3,0.3,0.5C310.5,147.4,310.4,147.2,310.3,147z"/>
	<path class="st2" d="M307.5,143.6c0.2,0.2,0.3,0.3,0.5,0.5C307.9,143.9,307.7,143.8,307.5,143.6z"/>
	<path class="st2" d="M309.5,145.8c0.1,0.2,0.3,0.4,0.4,0.5C309.8,146.2,309.6,146,309.5,145.8z"/>
	<path class="st2" d="M311,148.3c0.1,0.1,0.2,0.3,0.2,0.4C311.2,148.6,311.1,148.4,311,148.3z"/>
	<path class="st2" d="M306.4,142.7c0.2,0.1,0.4,0.3,0.5,0.4C306.8,143,306.6,142.9,306.4,142.7z"/>
	<path class="st2" d="M308.5,144.7c0.2,0.2,0.3,0.3,0.5,0.5C308.9,145,308.7,144.8,308.5,144.7z"/>
	<path class="st2" d="M205.3,119.4C205.3,119.4,205.3,119.4,205.3,119.4c-0.1,0-0.2,0-0.3,0.1l-2.8,1.2"/>
	<path class="st2" d="M257.2,120.7L257.2,120.7l-2.8-1.2c0,0,0,0-0.1,0c-0.1,0-0.1,0-0.2-0.1v0"/>
</g>
<g>
	<path class="st2" d="M100.5,141.7l22.3,10.2c0.1,0,0.1,0.1,0.2,0.1"/>
	<path class="st2" d="M16.4,152c0.1,0,0.1-0.1,0.2-0.1l22.3-10.2"/>
	<path class="st2" d="M3,187.1l1-3l6.4-24.8c0.1-0.3,0.2-0.7,0.4-1c0.1-0.1,0.1-0.2,0.2-0.3c0.1-0.2,0.2-0.5,0.4-0.7
		c0.1-0.1,0.2-0.3,0.3-0.4c0.1-0.2,0.3-0.4,0.4-0.6c0.1-0.1,0.2-0.3,0.3-0.4c0.1-0.2,0.3-0.4,0.4-0.6c0.1-0.1,0.2-0.3,0.4-0.4
		c0.2-0.2,0.3-0.3,0.5-0.5c0.1-0.1,0.3-0.3,0.4-0.4c0.2-0.2,0.3-0.3,0.5-0.4c0.1-0.1,0.3-0.2,0.4-0.4c0.2-0.1,0.3-0.2,0.5-0.4
		c0.2-0.1,0.3-0.2,0.5-0.3c0.1,0,0.1-0.1,0.2-0.1c0,0,0,0,0,0c0.1-0.1,0.3-0.2,0.4-0.2c0,0,0,0,0,0"/>
	<path class="st2" d="M2.5,188.5c0,0.1,0,0.2,0,0.3"/>
	<path class="st2" d="M2.6,188.4c0-0.2,0.1-0.3,0.1-0.5l0.3-0.8"/>
	<path class="st2" d="M2.5,189.1c0,0.1,0,0.2,0,0.3"/>
	<path class="st2" d="M2.5,188.5c0-0.1,0-0.1,0-0.2"/>
	<path class="st2" d="M23.7,187.1c-0.1-10-2.5-26-7.2-35.1"/>
	<path class="st2" d="M136.9,188.5c0,0.1,0,0.2,0,0.3"/>
	<path class="st2" d="M123,152L123,152C123,152,123,152,123,152c0.1,0.1,0.3,0.2,0.4,0.2c0,0,0,0,0,0c0.1,0,0.1,0.1,0.2,0.1
		c0.2,0.1,0.3,0.2,0.5,0.3c0.2,0.1,0.3,0.2,0.5,0.4c0.2,0.1,0.3,0.2,0.4,0.4c0.2,0.1,0.3,0.3,0.5,0.4c0.1,0.1,0.3,0.3,0.4,0.4
		c0.2,0.2,0.3,0.3,0.5,0.5c0.1,0.1,0.3,0.3,0.4,0.4c0.2,0.2,0.3,0.4,0.4,0.6c0.1,0.1,0.2,0.3,0.3,0.4c0.1,0.2,0.3,0.4,0.4,0.6
		c0.1,0.1,0.2,0.3,0.3,0.4c0.1,0.2,0.2,0.5,0.4,0.7c0.1,0.1,0.1,0.2,0.2,0.3c0.2,0.4,0.3,0.7,0.4,1l6.4,24.8l1,3"/>
	<path class="st2" d="M136.5,187.1l0.3,0.8c0,0.2,0.1,0.3,0.1,0.5"/>
	<path class="st2" d="M115.7,187.1c0.1-10,2.5-26,7.2-35.1"/>
	<path class="st2" d="M136.8,188.4c0,0.1,0,0.1,0,0.1"/>
	<path class="st2" d="M136.9,188.9c0,0.1,0,0.1,0,0.2"/>
	<path class="st2" d="M257.2,120.7l47.2,20.7c0.2,0.1,0.5,0.2,0.7,0.4"/>
	<path class="st2" d="M154.2,141.8c0.2-0.1,0.5-0.3,0.7-0.4l50.1-22c0,0,0,0,0.1,0c0.1,0,0.1,0,0.2-0.1c0,0,0,0,0,0
		c-0.1,0-0.1,0-0.2,0.1l-2.8,1.2"/>
	<path class="st2" d="M138.9,187.1l8.8-37.1c0.1-0.4,0.3-0.8,0.4-1.2c0.1-0.1,0.1-0.3,0.2-0.4c0.1-0.3,0.3-0.5,0.4-0.8
		c0.1-0.2,0.2-0.3,0.3-0.5c0.2-0.2,0.3-0.5,0.5-0.7c0.1-0.2,0.2-0.3,0.4-0.5c0.2-0.2,0.3-0.4,0.5-0.6c0.1-0.2,0.3-0.3,0.4-0.5
		c0.2-0.2,0.4-0.4,0.5-0.6c0.2-0.2,0.3-0.3,0.5-0.5c0.2-0.2,0.4-0.3,0.5-0.5c0.2-0.1,0.4-0.3,0.5-0.4c0.2-0.1,0.4-0.3,0.6-0.4
		c0.2-0.1,0.4-0.2,0.6-0.4c0.1,0,0.1-0.1,0.2-0.1c0,0,0,0,0,0"/>
	<path class="st2" d="M154.2,141.8c7.6,4.8,10.7,33.9,11.8,45.3"/>
	<path class="st2" d="M305.1,141.8c-7.6,4.8-10.7,33.9-11.8,45.3"/>
	<line class="st2" x1="136.5" y1="187.1" x2="138.9" y2="187.1"/>
	<line class="st2" x1="3" y1="187.1" x2="23.7" y2="187.1"/>
	<path class="st2" d="M305.1,141.8C305.1,141.8,305.1,141.8,305.1,141.8c0.1,0,0.2,0.1,0.2,0.1c0.2,0.1,0.4,0.2,0.6,0.4
		c0.2,0.1,0.4,0.3,0.6,0.4c0.2,0.1,0.4,0.3,0.5,0.4c0.2,0.2,0.4,0.3,0.5,0.5c0.2,0.2,0.3,0.3,0.5,0.5c0.2,0.2,0.3,0.4,0.5,0.5
		c0.2,0.2,0.3,0.3,0.5,0.5c0.2,0.2,0.3,0.4,0.5,0.6c0.1,0.2,0.3,0.4,0.4,0.5c0.2,0.2,0.3,0.4,0.4,0.7c0.1,0.2,0.2,0.3,0.3,0.5
		c0.1,0.3,0.3,0.5,0.4,0.8c0.1,0.1,0.2,0.3,0.2,0.4c0.2,0.4,0.3,0.8,0.4,1.2l8.8,37.1h-27.2"/>
	<line class="st2" x1="166.1" y1="187.1" x2="293.3" y2="187.1"/>
	<line class="st2" x1="138.9" y1="187.1" x2="166.1" y2="187.1"/>
	<line class="st2" x1="23.7" y1="187.1" x2="115.7" y2="187.1"/>
	<line class="st2" x1="115.7" y1="187.1" x2="136.5" y2="187.1"/>
</g>
</svg>
