<?xml version="1.0" encoding="utf-8"?>
<!-- Generator: Adobe Illustrator 19.1.0, SVG Export Plug-In . SVG Version: 6.00 Build 0)  -->
<svg version="1.1" id="Layer_1" xmlns="http://www.w3.org/2000/svg" xmlns:xlink="http://www.w3.org/1999/xlink" x="0px" y="0px"
	 viewBox="0 0 293.1 265.6" style="enable-background:new 0 0 293.1 265.6;" xml:space="preserve">
<style type="text/css">
	.st0{fill:none;stroke:#000000;stroke-width:5;stroke-miterlimit:10;}
	.st1{fill:#FFFFFF;stroke:#000000;stroke-width:5;stroke-miterlimit:10;}
</style>
<g>
	<g>
		<rect x="14.6" y="15.1" class="st0" width="264" height="144.5"/>
		<rect x="2.6" y="171.1" class="st1" width="288" height="40"/>
		<g>
			<rect x="110.6" y="211.1" class="st1" width="72" height="40"/>
			<rect x="94.6" y="251.1" class="st1" width="104" height="12"/>
		</g>
		<path class="st1" d="M2.5,2.5v168h288V2.5H2.5z M278.5,159.5h-264v-145h264V159.5z"/>
		
			<rect x="140.9" y="185.4" transform="matrix(0.7072 -0.707 0.707 0.7072 -92.1673 159.5575)" class="st1" width="11.3" height="11.3"/>
	</g>
	<g>
		<circle class="st1" cx="121.6" cy="88" r="60"/>
		<g>
			<g>
				<path class="st0" d="M110.8,102.5C110.8,102.5,110.8,102.5,110.8,102.5c0.7,5.4,5.3,9.5,10.8,9.5c0.2,0,0.4,0,0.6,0
					c0.1,0,0.3,0,0.4,0c0.3,0,0.6-0.1,0.9-0.1c0,0,0.1,0,0.1,0c4.6-0.9,8.2-4.6,8.8-9.3l0,0c0,0,0,0,0,0c0,0,0.1,0,0.1,0v-4.1
					c-2.9,3.6-6.7,5.8-10.9,5.8c-4.2,0-8-2.2-10.9-5.8L110.8,102.5C110.7,102.6,110.8,102.5,110.8,102.5
					C110.8,102.5,110.8,102.5,110.8,102.5z"/>
				<path class="st0" d="M132.5,98.5c2.6-3.2,4.4-7.5,5.1-12.4c0.1,0,0.2,0,0.3,0c1.5,0,2.7-1.2,2.7-2.7V78v-0.1h0
					c-0.1-1.5-1.3-2.6-2.7-2.6v-2.7c0-1.5-1.2-2.7-2.7-2.7h-1.8l0,0l0,0c-1.9,0-3.6-1-4.6-2.5c-1,1.5-2.7,2.5-4.6,2.5H108
					c-1.5,0-2.7,1.2-2.7,2.7v2.7c-1.5,0-2.7,1.2-2.7,2.6h0v5.6c0,1.5,1.2,2.7,2.7,2.7c0.1,0,0.2,0,0.3,0c0.7,4.9,2.6,9.2,5.1,12.4"
					/>
				<path class="st0" d="M105.3,75.3v-2.7c0-1.5,1.2-2.7,2.7-2.7h16.4c1.9,0,3.6-1,4.6-2.5c1,1.5,2.7,2.5,4.6,2.5l0,0l0,0h1.8
					c1.5,0,2.7,1.2,2.7,2.7v2.7c1.5,0,2.7,1.2,2.7,2.6h0V67.2v-0.1h0c-0.1-9-8.6-16.4-19.1-16.4c-10.5,0-19,7.3-19.1,16.4h0v0.1
					v10.7h0C102.6,76.4,103.8,75.3,105.3,75.3z"/>
				<path class="st0" d="M87.8,112.7c0.1-0.1,0.2-0.1,0.2-0.2C88,112.6,87.9,112.6,87.8,112.7z"/>
				<path class="st0" d="M155.2,112.5c0.1,0,0.2,0.1,0.2,0.2C155.3,112.6,155.3,112.6,155.2,112.5z"/>
				<path class="st0" d="M85.5,115.5c0-0.1,0.1-0.1,0.1-0.2C85.5,115.4,85.5,115.5,85.5,115.5z"/>
				<path class="st0" d="M86.1,114.5c0.1-0.1,0.1-0.1,0.2-0.2C86.2,114.3,86.1,114.4,86.1,114.5z"/>
				<path class="st0" d="M87.3,113.1c0.1-0.1,0.2-0.1,0.2-0.2C87.5,112.9,87.4,113,87.3,113.1z"/>
				<path class="st0" d="M86.5,114c0.1-0.1,0.1-0.1,0.2-0.2C86.6,113.8,86.5,113.9,86.5,114z"/>
				<path class="st0" d="M86.9,113.5c0.1-0.1,0.1-0.1,0.2-0.2C87,113.4,87,113.4,86.9,113.5z"/>
				<path class="st0" d="M85.7,115c0-0.1,0.1-0.1,0.1-0.2C85.8,114.9,85.8,114.9,85.7,115z"/>
				<path class="st0" d="M157.4,114.8c0,0.1,0.1,0.2,0.1,0.2C157.5,114.9,157.4,114.9,157.4,114.8z"/>
				<path class="st0" d="M156.1,113.3c0.1,0.1,0.2,0.1,0.2,0.2C156.3,113.4,156.2,113.4,156.1,113.3z"/>
				<path class="st0" d="M157,114.2c0.1,0.1,0.1,0.2,0.2,0.2C157.1,114.4,157.1,114.3,157,114.2z"/>
				<path class="st0" d="M157.7,115.4c0,0.1,0.1,0.1,0.1,0.2C157.8,115.5,157.7,115.4,157.7,115.4z"/>
				<path class="st0" d="M155.7,112.9c0.1,0.1,0.2,0.1,0.2,0.2C155.8,113,155.7,112.9,155.7,112.9z"/>
				<path class="st0" d="M156.6,113.7c0.1,0.1,0.1,0.2,0.2,0.2C156.7,113.9,156.7,113.8,156.6,113.7z"/>
				<path class="st0" d="M110.8,102.5C110.8,102.5,110.8,102.5,110.8,102.5c-0.1,0-0.1,0-0.1,0l-1.3,0.5"/>
				<path class="st0" d="M133.8,103.1C133.8,103.1,133.8,103.1,133.8,103.1l-1.3-0.6c0,0,0,0,0,0c0,0-0.1,0-0.1,0c0,0,0,0,0,0"/>
			</g>
			<g>
				<path class="st0" d="M133.8,103.1l20.9,9.2c0.1,0,0.2,0.1,0.3,0.2"/>
				<path class="st0" d="M88.2,112.5c0.1-0.1,0.2-0.1,0.3-0.2l22.2-9.7c0,0,0,0,0,0c0,0,0.1,0,0.1,0c0,0,0,0,0,0c0,0-0.1,0-0.1,0
					l-1.3,0.5"/>
				<path class="st0" d="M81.4,132.6l3.9-16.5c0-0.2,0.1-0.4,0.2-0.5c0-0.1,0.1-0.1,0.1-0.2c0.1-0.1,0.1-0.2,0.2-0.4
					c0-0.1,0.1-0.1,0.1-0.2c0.1-0.1,0.1-0.2,0.2-0.3c0.1-0.1,0.1-0.1,0.2-0.2c0.1-0.1,0.1-0.2,0.2-0.3c0.1-0.1,0.1-0.1,0.2-0.2
					c0.1-0.1,0.2-0.2,0.2-0.3c0.1-0.1,0.1-0.1,0.2-0.2c0.1-0.1,0.2-0.1,0.2-0.2c0.1-0.1,0.2-0.1,0.2-0.2c0.1-0.1,0.2-0.1,0.2-0.2
					c0.1-0.1,0.2-0.1,0.2-0.2c0,0,0.1,0,0.1-0.1c0,0,0,0,0,0"/>
				<path class="st0" d="M88.2,112.5c3.4,2.1,4.8,22.6,5.2,27.7"/>
				<path class="st0" d="M155.1,112.5c-3.4,2.1-4.8,22.6-5.2,27.7"/>
				<path class="st0" d="M155.1,112.5C155.1,112.5,155.1,112.5,155.1,112.5c0,0,0.1,0,0.1,0.1c0.1,0,0.2,0.1,0.2,0.2
					c0.1,0.1,0.2,0.1,0.2,0.2c0.1,0.1,0.2,0.1,0.2,0.2c0.1,0.1,0.2,0.1,0.2,0.2c0.1,0.1,0.2,0.1,0.2,0.2c0.1,0.1,0.2,0.2,0.2,0.2
					c0.1,0.1,0.1,0.2,0.2,0.2c0.1,0.1,0.1,0.2,0.2,0.3c0.1,0.1,0.1,0.2,0.2,0.2c0.1,0.1,0.1,0.2,0.2,0.3c0,0.1,0.1,0.2,0.1,0.2
					c0.1,0.1,0.1,0.2,0.2,0.3c0,0.1,0.1,0.1,0.1,0.2c0.1,0.2,0.1,0.4,0.2,0.5l3.9,16.5"/>
			</g>
		</g>
	</g>
	<g>
		<path class="st1" d="M230.3,92.7V82.6h-5.4c-0.7-3.5-2.1-6.7-4-9.6l3.9-3.9l-7.2-7.2l-3.9,3.9c-2.8-1.9-6-3.2-9.4-3.9v-5.4h-10.1
			V62c-3.4,0.7-6.6,2-9.4,3.9l-3.9-3.9l-7.2,7.2l3.9,3.9c-1.9,2.8-3.3,6.1-4,9.6h-5.4v10.1h5.4c0.7,3.4,2,6.6,3.9,9.4l-3.8,3.8
			l7.2,7.2l3.8-3.8c2.8,1.9,6.1,3.3,9.6,4v5.4h10.1v-5.4c3.5-0.7,6.7-2.1,9.6-4l3.8,3.8l7.2-7.2l-3.8-3.8c1.9-2.8,3.2-6,3.9-9.4
			H230.3z"/>
		<circle class="st1" cx="199.2" cy="87.6" r="14.8"/>
	</g>
</g>
</svg>
