<?xml version="1.0" encoding="utf-8"?>
<!DOCTYPE svg PUBLIC "-//W3C//DTD SVG 1.1//EN" "http://www.w3.org/Graphics/SVG/1.1/DTD/svg11.dtd">
<svg version="1.1" xmlns="http://www.w3.org/2000/svg" xmlns:xlink="http://www.w3.org/1999/xlink" x="0px" y="0px"
	 viewBox="0 0 838 215.9" style="enable-background:new 0 0 838 215.9;" xml:space="preserve">
<style type="text/css">
	.st0{fill:#002E4A;}
	.st1{fill:#FFFFFF;}
	.st2{fill:#1A9C8F;}
</style>
<g id="dots">
	<g>
		<g>
			<path class="st0" d="M149.8,58.1l-49.3,108.1c-3.5,7.6-12.5,11-20.1,7.5c-7.6-3.5-11-12.5-7.5-20.1l49.3-108.1
				c3.5-7.6,12.5-11,20.1-7.5C149.9,41.5,153.2,50.5,149.8,58.1z M92.2,157.4c-1.4-3.1-5-4.4-8-3c-3.1,1.4-4.4,5-3,8
				c1.4,3,5,4.4,8,3C92.3,164,93.6,160.4,92.2,157.4z M360.4,172.4c-7,4.6-16.4,2.6-21-4.5l-26.9-41.5h8.3c8.7,0,16.8-2.4,23.7-6.5
				l20.4,31.5C369.4,158.4,367.4,167.8,360.4,172.4z M284.8,89.1l15.2,0V70.8l-15.2,0c-6.3,0-11.8-3.1-15.2-7.8v33.9
				C273,92.2,278.5,89.1,284.8,89.1z M284.8,126.4c-6.3,0-11.8-3.1-15.2-7.8v41.1c0,8.4,6.8,15.2,15.2,15.2s15.2-6.8,15.2-15.2
				v-33.2H284.8z M492.5,154.4c-26.8,26.8-70.3,26.8-97.2,0c-5.9-5.9-5.9-15.5,0-21.4c5.9-5.9,15.5-5.9,21.4,0c15,15,39.3,15,54.3,0
				c15-15,15-39.3,0-54.3c-5.9-5.9-5.9-15.5,0-21.4c5.9-5.9,15.5-5.9,21.4,0C519.4,84.1,519.4,127.6,492.5,154.4z M410.4,139.4
				c-2.4-2.4-6.2-2.4-8.6,0c-2.4,2.4-2.4,6.2,0,8.6c2.4,2.4,6.2,2.4,8.6,0C412.8,145.6,412.8,141.8,410.4,139.4z M486.1,63.7
				c-2.4-2.4-6.2-2.4-8.6,0c-2.4,2.4-2.4,6.2,0,8.6c2.4,2.4,6.2,2.4,8.6,0C488.5,69.9,488.5,66.1,486.1,63.7z M626,120.4v39.2
				c0,8.4,6.8,15.2,15.2,15.2s15.2-6.8,15.2-15.2V63.3L626,120.4z M588.7,111l-14.5,27.3h0c-1.1,2-1.7,4.2-2,6.3l-45.4-85.4
				c-3.9-7.4-1.1-16.6,6.3-20.5c7.4-3.9,16.6-1.1,20.5,6.3L588.7,111z M545.6,49.3c-1.6-3-5.2-4.1-8.2-2.5c-3,1.6-4.1,5.2-2.5,8.2
				c1.6,3,5.2,4.1,8.2,2.5C546,55.9,547.2,52.2,545.6,49.3z M687,130.5c3.5-3.5,8.2-5.5,13.2-5.5c1.7,0,3.4,0.2,5,0.7
				c-9-14.8-7.1-34.3,5.7-47c12.8-12.8,32.3-14.6,47-5.7c-0.5-1.6-0.7-3.3-0.7-5c0-5,1.9-9.7,5.5-13.2c3.5-3.5,8.2-5.5,13.2-5.5
				c0,0,0,0,0,0c0.4,0,0.8,0,1.3,0.1c-26.8-18.6-63.8-16-87.7,7.9c-23.9,23.9-26.5,60.9-7.9,87.7C681.3,139.8,683.1,134.5,687,130.5
				z M256,159.6c0,8.4-6.8,15.2-15.2,15.2h-63.7c-8.4,0-15.2-6.8-15.2-15.2v-41.9c3.4,4.7,8.9,7.8,15.2,7.8h15.2v18.9h48.5
				C249.2,144.5,256,151.3,256,159.6z M240.9,36.9h-63.7c-8.4,0-15.2,6.8-15.2,15.2V96c3.4-4.7,8.9-7.8,15.2-7.8h15.2V67.3h48.5
				c8.4,0,15.2-6.8,15.2-15.2S249.2,36.9,240.9,36.9z"/>
		</g>
		<path class="st2" d="M68.4,156.3L23.6,58.1c-3.5-7.6-0.1-16.6,7.5-20.1c7.6-3.5,16.6-0.1,20.1,7.5l33.5,73.6l-15.1,33.1v0
			C69.1,153.5,68.7,154.9,68.4,156.3z"/>
		<path class="st2" d="M240.1,106.9c0,8.4-6.8,15.2-15.2,15.2h-47.8c-8.4,0-15.2-6.8-15.2-15.2c0-8.4,6.8-15.2,15.2-15.2H225
			C233.3,91.7,240.1,98.5,240.1,106.9z M183.3,106.9c0-3.4-2.7-6.1-6.1-6.1c-3.4,0-6.1,2.7-6.1,6.1c0,3.4,2.7,6.1,6.1,6.1
			C180.6,112.9,183.3,110.2,183.3,106.9z"/>
		<path class="st2" d="M363.7,79.9c0,23.7-19.2,43-43,43h-35.9c-8.4,0-15.2-6.8-15.2-15.2c0-8.4,6.8-15.2,15.2-15.2l35.6,0
			c7,0,12.6-5.7,12.6-12.6s-5.7-12.6-12.6-12.6l-35.6,0c-8.4,0-15.2-6.8-15.2-15.2s6.8-15.2,15.2-15.2h35.9
			C344.4,36.9,363.7,56.2,363.7,79.9z M290.8,52.1c0-3.4-2.7-6.1-6.1-6.1s-6.1,2.7-6.1,6.1c0,3.4,2.7,6.1,6.1,6.1
			S290.8,55.5,290.8,52.1z M290.8,107.7c0-3.4-2.7-6.1-6.1-6.1s-6.1,2.7-6.1,6.1c0,3.4,2.7,6.1,6.1,6.1S290.8,111.1,290.8,107.7z"/>
		<path class="st2" d="M392.9,130.5c3.5-3.5,8.2-5.5,13.2-5.5c0,0,0,0,0,0c1.7,0,3.4,0.2,5,0.7c-9-14.8-7.1-34.3,5.7-47
			c12.8-12.8,32.3-14.7,47-5.7c-1.8-6.3-0.2-13.3,4.8-18.2c3.5-3.5,8.2-5.5,13.2-5.5c0.4,0,0.8,0,1.3,0.1
			c-26.8-18.6-63.8-16-87.7,7.9c-23.9,23.9-26.5,60.9-7.9,87.7C387.2,139.8,388.9,134.5,392.9,130.5z"/>
		<path class="st2" d="M525.1,63.3v96.3c0,8.4,6.8,15.2,15.2,15.2c8.4,0,15.2-6.8,15.2-15.2v-39.2L525.1,63.3z M654.6,59.2
			l-50.5,94.9c-3.9,7.4-13.1,10.2-20.5,6.3c-7.4-3.9-10.2-13.1-6.3-20.5L627.8,45c3.9-7.4,13.1-10.2,20.5-6.3
			C655.7,42.6,658.5,51.8,654.6,59.2z M593.6,141.7c-3-1.6-6.6-0.5-8.2,2.5c-1.6,3-0.5,6.6,2.5,8.2c3,1.6,6.6,0.5,8.2-2.5
			S596.5,143.3,593.6,141.7z M644,46.8c-3-1.6-6.6-0.5-8.2,2.5c-1.6,3-0.5,6.6,2.5,8.2c3,1.6,6.6,0.5,8.2-2.5
			C648.1,52,647,48.3,644,46.8z"/>
		<path class="st2" d="M786.7,154.4c-26.8,26.8-70.3,26.8-97.2,0c-5.9-5.9-5.9-15.5,0-21.4c5.9-5.9,15.5-5.9,21.4,0
			c15,15,39.3,15,54.3,0c15-15,15-39.3,0-54.3c-5.9-5.9-5.9-15.5,0-21.4c5.9-5.9,15.5-5.9,21.4,0
			C813.5,84.1,813.5,127.6,786.7,154.4z M704.5,139.4c-2.4-2.4-6.2-2.4-8.6,0c-2.4,2.4-2.4,6.2,0,8.6c2.4,2.4,6.2,2.4,8.6,0
			C706.9,145.6,706.9,141.8,704.5,139.4z M780.2,63.7c-2.4-2.4-6.2-2.4-8.6,0c-2.4,2.4-2.4,6.2,0,8.6c2.4,2.4,6.2,2.4,8.6,0
			C782.6,69.9,782.6,66.1,780.2,63.7z"/>
	</g>
</g>
</svg>
