<?xml version="1.0" encoding="utf-8"?>
<!DOCTYPE svg PUBLIC "-//W3C//DTD SVG 1.1//EN" "http://www.w3.org/Graphics/SVG/1.1/DTD/svg11.dtd">
<svg version="1.1" xmlns="http://www.w3.org/2000/svg" xmlns:xlink="http://www.w3.org/1999/xlink" x="0px" y="0px"
	 viewBox="0 0 838 215.9" style="enable-background:new 0 0 838 215.9;" xml:space="preserve">
<style type="text/css">
	.st0{fill:#002E4A;}
	.st1{fill:#FFFFFF;}
	.st2{fill:#1A9C8F;}
</style>
<g>
	<g>
		<path class="st1" d="M68.4,161.5L23.6,63.3c-3.5-7.6-0.1-16.6,7.5-20.1c7.6-3.5,16.6-0.1,20.1,7.5l33.5,73.6l-15.1,33.1v0
			C69.1,158.7,68.7,160.1,68.4,161.5z M149.8,63.3l-49.3,108.1c-3.5,7.6-12.5,11-20.1,7.5c-7.6-3.5-11-12.5-7.5-20.1l49.3-108.1
			c3.5-7.6,12.5-11,20.1-7.5C149.9,46.7,153.2,55.7,149.8,63.3z M92.2,162.6c-1.4-3.1-5-4.4-8-3c-3.1,1.4-4.4,5-3,8c1.4,3,5,4.4,8,3
			C92.3,169.2,93.6,165.6,92.2,162.6z M360.4,177.6c-7,4.6-16.4,2.6-21-4.5l-26.9-41.5h8.3c8.7,0,16.8-2.4,23.7-6.5l20.4,31.5
			C369.4,163.6,367.4,173,360.4,177.6z M284.8,94.3l15.2,0V76l-15.2,0c-6.3,0-11.8-3.1-15.2-7.8v33.9
			C273,97.4,278.5,94.3,284.8,94.3z M284.8,131.6c-6.3,0-11.8-3.1-15.2-7.8v41.1c0,8.4,6.8,15.2,15.2,15.2s15.2-6.8,15.2-15.2v-33.2
			H284.8z M363.7,85.1c0,23.7-19.2,43-43,43h-35.9c-8.4,0-15.2-6.8-15.2-15.2c0-8.4,6.8-15.2,15.2-15.2l35.6,0
			c7,0,12.6-5.7,12.6-12.6s-5.7-12.6-12.6-12.6l-35.6,0c-8.4,0-15.2-6.8-15.2-15.2s6.8-15.2,15.2-15.2h35.9
			C344.4,42.2,363.7,61.4,363.7,85.1z M290.8,57.3c0-3.4-2.7-6.1-6.1-6.1s-6.1,2.7-6.1,6.1c0,3.4,2.7,6.1,6.1,6.1
			S290.8,60.7,290.8,57.3z M290.8,113c0-3.4-2.7-6.1-6.1-6.1s-6.1,2.7-6.1,6.1c0,3.4,2.7,6.1,6.1,6.1S290.8,116.3,290.8,113z
			 M392.9,135.7c3.5-3.5,8.2-5.5,13.2-5.5c0,0,0,0,0,0c1.7,0,3.4,0.2,5,0.7c-9-14.8-7.1-34.3,5.7-47c12.8-12.8,32.3-14.7,47-5.7
			c-1.8-6.3-0.2-13.3,4.8-18.2c3.5-3.5,8.2-5.5,13.2-5.5c0.4,0,0.8,0,1.3,0.1c-26.8-18.6-63.8-16-87.7,7.9
			c-23.9,23.9-26.5,60.9-7.9,87.7C387.2,145,388.9,139.7,392.9,135.7z M492.5,159.6c-26.8,26.8-70.3,26.8-97.2,0
			c-5.9-5.9-5.9-15.5,0-21.4c5.9-5.9,15.5-5.9,21.4,0c15,15,39.3,15,54.3,0c15-15,15-39.3,0-54.3c-5.9-5.9-5.9-15.5,0-21.4
			c5.9-5.9,15.5-5.9,21.4,0C519.4,89.3,519.4,132.8,492.5,159.6z M410.4,144.6c-2.4-2.4-6.2-2.4-8.6,0c-2.4,2.4-2.4,6.2,0,8.6
			c2.4,2.4,6.2,2.4,8.6,0C412.8,150.8,412.8,147,410.4,144.6z M486.1,68.9c-2.4-2.4-6.2-2.4-8.6,0c-2.4,2.4-2.4,6.2,0,8.6
			c2.4,2.4,6.2,2.4,8.6,0C488.5,75.1,488.5,71.3,486.1,68.9z M626,125.6v39.2c0,8.4,6.8,15.2,15.2,15.2s15.2-6.8,15.2-15.2V68.6
			L626,125.6z M525.1,68.6v96.3c0,8.4,6.8,15.2,15.2,15.2c8.4,0,15.2-6.8,15.2-15.2v-39.2L525.1,68.6z M588.7,116.2l-14.5,27.3h0
			c-1.1,2-1.7,4.2-2,6.3l-45.4-85.4c-3.9-7.4-1.1-16.6,6.3-20.5c7.4-3.9,16.6-1.1,20.5,6.3L588.7,116.2z M545.6,54.5
			c-1.6-3-5.2-4.1-8.2-2.5c-3,1.6-4.1,5.2-2.5,8.2c1.6,3,5.2,4.1,8.2,2.5C546,61.1,547.2,57.4,545.6,54.5z M654.6,64.5l-50.5,94.9
			c-3.9,7.4-13.1,10.2-20.5,6.3c-7.4-3.9-10.2-13.1-6.3-20.5l50.5-94.9c3.9-7.4,13.1-10.2,20.5-6.3
			C655.7,47.9,658.5,57.1,654.6,64.5z M593.6,146.9c-3-1.6-6.6-0.5-8.2,2.5c-1.6,3-0.5,6.6,2.5,8.2c3,1.6,6.6,0.5,8.2-2.5
			S596.5,148.5,593.6,146.9z M644,52c-3-1.6-6.6-0.5-8.2,2.5c-1.6,3-0.5,6.6,2.5,8.2c3,1.6,6.6,0.5,8.2-2.5
			C648.1,57.2,647,53.6,644,52z M687,135.7c3.5-3.5,8.2-5.5,13.2-5.5c1.7,0,3.4,0.2,5,0.7c-9-14.8-7.1-34.3,5.7-47
			c12.8-12.8,32.3-14.6,47-5.7c-0.5-1.6-0.7-3.3-0.7-5c0-5,1.9-9.7,5.5-13.2c3.5-3.5,8.2-5.5,13.2-5.5c0,0,0,0,0,0
			c0.4,0,0.8,0,1.3,0.1c-26.8-18.6-63.8-16-87.7,7.9c-23.9,23.9-26.5,60.9-7.9,87.7C681.3,145,683.1,139.7,687,135.7z M786.7,159.6
			c-26.8,26.8-70.3,26.8-97.2,0c-5.9-5.9-5.9-15.5,0-21.4c5.9-5.9,15.5-5.9,21.4,0c15,15,39.3,15,54.3,0c15-15,15-39.3,0-54.3
			c-5.9-5.9-5.9-15.5,0-21.4c5.9-5.9,15.5-5.9,21.4,0C813.5,89.3,813.5,132.8,786.7,159.6z M704.5,144.6c-2.4-2.4-6.2-2.4-8.6,0
			c-2.4,2.4-2.4,6.2,0,8.6c2.4,2.4,6.2,2.4,8.6,0C706.9,150.8,706.9,147,704.5,144.6z M780.2,68.9c-2.4-2.4-6.2-2.4-8.6,0
			c-2.4,2.4-2.4,6.2,0,8.6c2.4,2.4,6.2,2.4,8.6,0C782.6,75.1,782.6,71.3,780.2,68.9z M256,164.9c0,8.4-6.8,15.2-15.2,15.2h-63.7
			c-8.4,0-15.2-6.8-15.2-15.2v-41.9c3.4,4.7,8.9,7.8,15.2,7.8h15.2v18.9h48.5C249.2,149.7,256,156.5,256,164.9z M240.1,112.1
			c0,8.4-6.8,15.2-15.2,15.2h-47.8c-8.4,0-15.2-6.8-15.2-15.2c0-8.4,6.8-15.2,15.2-15.2H225C233.3,96.9,240.1,103.7,240.1,112.1z
			 M183.3,112.1c0-3.4-2.7-6.1-6.1-6.1c-3.4,0-6.1,2.7-6.1,6.1c0,3.4,2.7,6.1,6.1,6.1C180.6,118.2,183.3,115.5,183.3,112.1z
			 M240.9,42.2h-63.7c-8.4,0-15.2,6.8-15.2,15.2v43.9c3.4-4.7,8.9-7.8,15.2-7.8h15.2V72.5h48.5c8.4,0,15.2-6.8,15.2-15.2
			S249.2,42.2,240.9,42.2z"/>
	</g>
</g>
</svg>
