<?xml version="1.0" encoding="utf-8"?>
<!-- Generator: Adobe Illustrator 20.0.0, SVG Export Plug-In . SVG Version: 6.00 Build 0)  -->
<svg version="1.1" id="Layer_1" xmlns="http://www.w3.org/2000/svg" xmlns:xlink="http://www.w3.org/1999/xlink" x="0px" y="0px"
	 viewBox="0 0 135 90" style="enable-background:new 0 0 135 90;fill: #000;" xml:space="preserve">
<path d="M105,79.4l-13.5-3.8c12.3-9.4,18.9-25.5,15.5-41.8C102.2,11,80-3.6,57.6,1.1S21,28,25.7,50.7c4.7,22.6,26.8,37.2,49.1,32.5
	c1.2-0.3,2.5-0.5,3.7-0.9l23.3,6.9L105,79.4z M72.6,72.2c-15.8,3.3-31.5-7.4-35-24c-3.5-16.7,6.5-32.8,22.3-36.2
	c15.9-3.3,31.6,7.5,35.1,24.2C98.5,52.7,88.5,68.9,72.6,72.2z"/>
</svg>
