<?xml version="1.0" encoding="utf-8"?>
<!-- Generator: Adobe Illustrator 20.0.0, SVG Export Plug-In . SVG Version: 6.00 Build 0)  -->
<svg version="1.1" id="Layer_1" xmlns="http://www.w3.org/2000/svg" xmlns:xlink="http://www.w3.org/1999/xlink" x="0px" y="0px"
	 viewBox="0 0 135 90" style="enable-background:new 0 0 135 90;fill:#000;" xml:space="preserve">
<g>
	<path d="M89.8,21.8c-3.9-5.5-12.2-10.3-21.5-10.3c-10.4,0-16.9,4.6-16.9,11.6c0,19.1,48.5,10.4,48.5,41.3
		C99.9,79.7,87.4,90,68.1,90c-16.2,0-26.8-6.4-32.8-14.8l8.8-8.3c5.8,7.6,14.2,11.5,24.1,11.5c11.9,0,18.7-5.1,18.7-13.3
		c0-21.1-48.5-11.8-48.5-41.7C38.4,9.6,50.7,0,68.7,0c13.5,0,24.5,6,29.8,13.4L89.8,21.8z"/>
</g>
</svg>
