<?xml version="1.0" encoding="utf-8"?>
<!-- Generator: Adobe Illustrator 20.0.0, SVG Export Plug-In . SVG Version: 6.00 Build 0)  -->
<svg version="1.1" id="Layer_1" xmlns="http://www.w3.org/2000/svg" xmlns:xlink="http://www.w3.org/1999/xlink" x="0px" y="0px"
	 viewBox="0 0 135 90" style="enable-background:new 0 0 135 90;fill: #FFF;" xml:space="preserve">
<g>
	<path d="M36.2,0.4h35.6c15.7,0,27.9,10.2,27.9,24.1c0,10.6-7.7,16.8-13.7,19.2c9,2.7,16.7,9.8,16.7,21.6C102.5,78.5,91.6,90,74,90
		H36.2V0.4z M48.8,11.6v27.3h21.7c9.1,0,16-5.9,16-13.6c0-7.7-6.9-13.7-16-13.7H48.8z M48.8,49.5v29.1h23.7
		c9.7,0,16.9-6.3,16.9-14.6c0-8.3-7.3-14.6-16.8-14.6H48.8z"/>
</g>
</svg>
