<?xml version="1.0" encoding="utf-8"?>
<!-- Generator: Adobe Illustrator 19.2.1, SVG Export Plug-In . SVG Version: 6.00 Build 0)  -->
<svg version="1.1" id="Layer_1" xmlns="http://www.w3.org/2000/svg" xmlns:xlink="http://www.w3.org/1999/xlink" x="0px" y="0px"
	 viewBox="0 0 147.4 147.4" style="enable-background:new 0 0 147.4 147.4;" xml:space="preserve">
<style type="text/css">
	.st0{fill:#FFFFFF;stroke:#072C49;stroke-width:1.75;stroke-miterlimit:10;}
	.st1{fill:none;stroke:#072C49;stroke-width:1.75;stroke-miterlimit:10;}
</style>
<g>
	<polyline class="st0" points="129.1,67.8 129.1,49.3 116.8,53 	"/>
	<polyline class="st0" points="129.1,67.8 129.1,86.3 116.8,82.6 	"/>
	<polyline class="st0" points="92.2,86.3 86,98.6 61.4,98.6 55.2,86.3 	"/>
	<path class="st0" d="M49.1,49.3c-17,0-30.8,8.3-30.8,18.5c0,10.2,13.8,18.5,30.8,18.5h49.2c17,0,30.8-8.3,30.8-18.5
		c0-10.2-13.8-18.5-30.8-18.5"/>
	<path class="st0" d="M18.3,67.8c0,6.8,13.8,12.3,30.8,12.3"/>
	<path class="st0" d="M18.3,67.8c0,3.4,13.8,6.2,30.8,6.2"/>
	<path class="st0" d="M18.3,67.8c0-3.4,13.8-6.2,30.8-6.2"/>
	<path class="st1" d="M18.3,67.8c0-6.8,13.8-12.3,30.8-12.3"/>
	<line class="st0" x1="18.3" y1="67.8" x2="49.1" y2="67.8"/>
	<path class="st0" d="M129.1,67.8c0,6.8-13.8,12.3-30.8,12.3"/>
	<path class="st0" d="M129.1,67.8c0,3.4-13.8,6.2-30.8,6.2"/>
	<path class="st0" d="M129.1,67.8c0-3.4-13.8-6.2-30.8-6.2"/>
	<path class="st1" d="M129.1,67.8c0-6.8-13.8-12.3-30.8-12.3"/>
	<line class="st0" x1="129.1" y1="67.8" x2="98.3" y2="67.8"/>
	<line class="st0" x1="49.1" y1="49.3" x2="98.3" y2="49.3"/>
	<line class="st0" x1="49.1" y1="55.5" x2="98.3" y2="55.5"/>
	<line class="st0" x1="49.1" y1="61.6" x2="98.3" y2="61.6"/>
	<line class="st0" x1="49.1" y1="67.8" x2="98.3" y2="67.8"/>
	<line class="st0" x1="49.1" y1="80.1" x2="98.3" y2="80.1"/>
	<line class="st0" x1="49.1" y1="73.9" x2="98.3" y2="73.9"/>
	<circle class="st0" cx="67.5" cy="91.6" r="1.5"/>
	<circle class="st0" cx="73.7" cy="91.6" r="1.5"/>
	<circle class="st0" cx="79.9" cy="91.6" r="1.5"/>
	<line class="st0" x1="55.2" y1="37" x2="135.2" y2="37"/>
	<line class="st0" x1="122.9" y1="30.9" x2="147.5" y2="30.9"/>
	<line class="st0" x1="42.9" y1="110.9" x2="98.3" y2="110.9"/>
	<line class="st0" x1="30.6" y1="92.4" x2="-0.1" y2="92.4"/>
	<line class="st0" x1="92.2" y1="117" x2="116.8" y2="117"/>
	<line class="st0" x1="98.3" y1="123.2" x2="79.9" y2="123.2"/>
	<line class="st0" x1="67.5" y1="24.7" x2="30.6" y2="24.7"/>
	<line class="st0" x1="110.6" y1="98.6" x2="141.4" y2="98.6"/>
	<line class="st0" x1="49.1" y1="86.3" x2="49.1" y2="49.3"/>
	<line class="st0" x1="73.7" y1="86.4" x2="73.7" y2="49.3"/>
	<line class="st0" x1="98.3" y1="86.3" x2="98.3" y2="49.3"/>
</g>
</svg>
