<?xml version="1.0" encoding="utf-8"?>
<!-- Generator: Adobe Illustrator 19.2.0, SVG Export Plug-In . SVG Version: 6.00 Build 0)  -->
<svg version="1.1" id="Layer_1" xmlns="http://www.w3.org/2000/svg" xmlns:xlink="http://www.w3.org/1999/xlink" x="0px" y="0px"
	 viewBox="0 0 197 185" style="enable-background:new 0 0 197 185;" xml:space="preserve">
<style type="text/css">
	.st0{fill:none;}
	.st1{fill:none;stroke:#010101;stroke-width:5;stroke-miterlimit:10;}
	.st2{fill:#FFFFFF;}
	.st3{fill:#FFFFFF;stroke:#010101;stroke-width:5;stroke-miterlimit:10;}
</style>
<g>
	<rect x="25.7" y="2.5" class="st0" width="146" height="180"/>
	<g>
		<g>
			<g>
				<polyline class="st1" points="25.7,2.5 25.7,182.5 171.7,182.5 171.7,2.5 				"/>
			</g>
		</g>
	</g>
	<path class="st2" d="M26.5,2.5L2.5,50v8c0,8.8,7.2,16,16,16s16-7.2,16-16c0,8.8,7.2,16,16,16s16-7.2,16-16c0,8.8,7.2,16,16,16
		s16-7.2,16-16c0,8.8,7.2,16,16,16s16-7.2,16-16c0,8.8,7.2,16,16,16s16-7.2,16-16c0,8.8,7.2,16,16,16s16-7.2,16-16v-8l-24-47.5H26.5
		z"/>
	<g>
		<path class="st1" d="M26.5,2.5L2.5,50v8c0,8.8,7.2,16,16,16s16-7.2,16-16c0,8.8,7.2,16,16,16s16-7.2,16-16c0,8.8,7.2,16,16,16
			s16-7.2,16-16c0,8.8,7.2,16,16,16s16-7.2,16-16c0,8.8,7.2,16,16,16s16-7.2,16-16c0,8.8,7.2,16,16,16s16-7.2,16-16v-8l-24-47.5
			H26.5z"/>
		<line class="st3" x1="2.5" y1="50" x2="194.5" y2="50"/>
	</g>
</g>
<rect x="95.7" y="92.5" class="st3" width="48.7" height="90"/>
</svg>
