<?xml version="1.0" encoding="utf-8"?>
<!-- Generator: Adobe Illustrator 19.2.1, SVG Export Plug-In . SVG Version: 6.00 Build 0)  -->
<svg version="1.1" id="Layer_1" xmlns="http://www.w3.org/2000/svg" xmlns:xlink="http://www.w3.org/1999/xlink" x="0px" y="0px"
	 viewBox="0 0 61.1 58" enable-background="new 0 0 61.1 58" xml:space="preserve">
<g>
	<path fill="#010101" d="M59.6,58H1.5C0.7,58,0,57.3,0,56.5V12c0-0.8,0.7-1.5,1.5-1.5h8.6c0.8,0,1.5,0.7,1.5,1.5s-0.7,1.5-1.5,1.5H3
		V55h55.1V13.5h-5.6c-0.8,0-1.5-0.7-1.5-1.5s0.7-1.5,1.5-1.5h7.1c0.8,0,1.5,0.7,1.5,1.5v44.5C61.1,57.3,60.4,58,59.6,58z"/>
</g>
<g>
	<path fill="#010101" d="M38.8,13.5H22.3c-0.8,0-1.5-0.7-1.5-1.5s0.7-1.5,1.5-1.5h16.5c0.8,0,1.5,0.7,1.5,1.5S39.6,13.5,38.8,13.5z"
		/>
</g>
<g>
	<g>
		<path fill="#010101" d="M16.3,20c-0.8,0-1.5-0.7-1.5-1.5v-17c0-0.8,0.7-1.5,1.5-1.5s1.5,0.7,1.5,1.5v17C17.8,19.3,17.1,20,16.3,20
			z"/>
	</g>
	<g>
		<path fill="#010101" d="M44.8,20c-0.8,0-1.5-0.7-1.5-1.5v-17C43.3,0.7,44,0,44.8,0s1.5,0.7,1.5,1.5v17C46.3,19.3,45.6,20,44.8,20z
			"/>
	</g>
</g>
<g>
	<path fill="#010101" d="M42.6,49.8H9.2c-0.8,0-1.5-0.7-1.5-1.5V28.5c0-0.8,0.7-1.5,1.5-1.5h42.2c0.8,0,1.5,0.7,1.5,1.5v12.1
		c0,0.8-0.7,1.5-1.5,1.5h-7.3v6.2C44.1,49.1,43.4,49.8,42.6,49.8z M10.7,46.8h30.4v-6.2c0-0.8,0.7-1.5,1.5-1.5h7.3V30H10.7V46.8z"/>
</g>
</svg>
