<?xml version="1.0" encoding="utf-8"?>
<!-- Generator: Adobe Illustrator 19.2.1, SVG Export Plug-In . SVG Version: 6.00 Build 0)  -->
<svg version="1.1" id="Layer_1" xmlns="http://www.w3.org/2000/svg" xmlns:xlink="http://www.w3.org/1999/xlink" x="0px" y="0px"
	 viewBox="0 0 47 61" enable-background="new 0 0 47 61" xml:space="preserve">
<g>
	<g>
		<path fill="#010101" d="M45.5,61h-44C0.7,61,0,60.3,0,59.5v-44c0-0.4,0.2-0.8,0.4-1.1l14-14C14.7,0.2,15.1,0,15.5,0h30
			C46.3,0,47,0.7,47,1.5v58C47,60.3,46.3,61,45.5,61z M3,58h41V3H16.1L3,16.1V58z"/>
	</g>
	<g>
		<path fill="#010101" d="M15.5,17h-13C1.7,17,1,16.3,1,15.5S1.7,14,2.5,14H14V2.5C14,1.7,14.7,1,15.5,1S17,1.7,17,2.5v13
			C17,16.3,16.3,17,15.5,17z"/>
	</g>
</g>
</svg>
