<?xml version="1.0" encoding="utf-8"?>
<!-- Generator: Adobe Illustrator 19.2.0, SVG Export Plug-In . SVG Version: 6.00 Build 0)  -->
<svg version="1.1" id="Layer_1" xmlns="http://www.w3.org/2000/svg" xmlns:xlink="http://www.w3.org/1999/xlink" x="0px" y="0px"
	 viewBox="0 0 301 245" style="enable-background:new 0 0 301 245;" xml:space="preserve">
<style type="text/css">
	.st0{fill:#FFFFFF;stroke:#010101;stroke-width:5;stroke-miterlimit:10;}
	.st1{fill:none;}
	.st2{fill:none;stroke:#010101;stroke-width:5;stroke-miterlimit:10;}
	.st3{fill:#FFFFFF;}
</style>
<g>
	<g>
		<rect x="138.5" y="58.5" class="st0" width="160" height="184"/>
		<path class="st0" d="M42.5,2.5c-22.1,0-40,17.9-40,40s17.9,40,40,40"/>
		<rect x="138.5" y="2.5" class="st1" width="160" height="56"/>
		<rect x="42.5" y="2.5" class="st1" width="80" height="80"/>
		<rect x="138.5" y="2.5" class="st2" width="160" height="240"/>
		<rect x="42.5" y="2.5" class="st2" width="80" height="80"/>
		<path class="st2" d="M42.5,50.5c-4.4,0-8-3.6-8-8c0-4.4,3.6-8,8-8"/>
		<g>
			<rect x="42.5" y="154.5" class="st3" width="136" height="72"/>
			<g>
				<rect x="42.5" y="154.5" class="st2" width="136" height="72"/>
				<polyline class="st2" points="42.5,154.5 110.5,190.5 178.5,154.5 				"/>
			</g>
		</g>
		<rect x="74.5" y="34.5" class="st0" width="16" height="16"/>
		<circle class="st0" cx="167" cy="30.5" r="12"/>
		<g>
			<rect x="42.5" y="98.5" class="st0" width="80" height="40"/>
			<polygon class="st2" points="82.5,110.5 74.5,126.5 90.5,126.5 			"/>
		</g>
		<line class="st2" x1="138.5" y1="58.5" x2="298.5" y2="58.5"/>
	</g>
</g>
</svg>
