<?xml version="1.0" encoding="utf-8"?>
<!-- Generator: Adobe Illustrator 19.2.1, SVG Export Plug-In . SVG Version: 6.00 Build 0)  -->
<svg version="1.1" id="Layer_1" xmlns="http://www.w3.org/2000/svg" xmlns:xlink="http://www.w3.org/1999/xlink" x="0px" y="0px"
	 viewBox="0 0 61 58.1" enable-background="new 0 0 61 58.1" xml:space="preserve">
<g>
	<g>
		<path fill="none" stroke="#010101" stroke-width="3" stroke-linecap="round" stroke-linejoin="round" stroke-miterlimit="10" d="
			M42.2,58.1"/>
	</g>
	<g>
		<g>
			<path fill="#010101" d="M29.5,44.5c-0.4,0-0.7-0.1-1-0.4L16.8,33.6c-0.6-0.6-0.7-1.5-0.1-2.1c0.6-0.6,1.5-0.7,2.1-0.1L29.5,41
				l10.8-9.6c0.6-0.6,1.6-0.5,2.1,0.1c0.6,0.6,0.5,1.6-0.1,2.1L30.5,44.1C30.2,44.4,29.9,44.5,29.5,44.5z"/>
		</g>
		<g>
			<path fill="#010101" d="M29.5,43c-0.8,0-1.5-0.7-1.5-1.5v-40C28,0.7,28.7,0,29.5,0S31,0.7,31,1.5v40C31,42.3,30.3,43,29.5,43z"/>
		</g>
		<g>
			<path fill="#010101" d="M59.5,58h-58C0.7,58,0,57.3,0,56.5v-38C0,17.7,0.7,17,1.5,17h19c0.8,0,1.5,0.7,1.5,1.5S21.3,20,20.5,20H3
				v35h55V20H38.5c-0.8,0-1.5-0.7-1.5-1.5s0.7-1.5,1.5-1.5h21c0.8,0,1.5,0.7,1.5,1.5v38C61,57.3,60.3,58,59.5,58z"/>
		</g>
	</g>
</g>
</svg>
