<?xml version="1.0" encoding="utf-8"?>
<!-- Generator: Adobe Illustrator 19.1.0, SVG Export Plug-In . SVG Version: 6.00 Build 0)  -->
<svg version="1.1" id="Layer_1" xmlns="http://www.w3.org/2000/svg" xmlns:xlink="http://www.w3.org/1999/xlink" x="0px" y="0px"
	 viewBox="0 0 293 221.3" style="enable-background:new 0 0 293 221.3;" xml:space="preserve">
<style type="text/css">
	.st0{fill:none;}
	.st1{fill:none;stroke:#010101;stroke-width:5;stroke-miterlimit:10;}
	.st2{fill:#FFFFFF;stroke:#010101;stroke-width:5;stroke-miterlimit:10;}
	.st3{fill:#FFFFFF;}
</style>
<g>
	<polygon class="st0" points="146.5,2.8 290.5,74.8 146.5,146.8 2.5,74.8 	"/>
	<polyline class="st1" points="34.5,58.8 146.5,2.8 258.5,58.8 	"/>
	<g>
		<path class="st2" d="M146.5,18.8c0-8.8,7.2-16,16-16h96v144h-224V2.8h96C139.3,2.8,146.5,10,146.5,18.8"/>
		<g>
			<path class="st1" d="M146.5,146.8c0-8.8-7.2-16-16-16"/>
			<path class="st1" d="M146.5,146.8c0-8.8,7.2-16,16-16h96"/>
			<line class="st1" x1="130.5" y1="130.8" x2="34.5" y2="130.8"/>
			<line class="st1" x1="146.5" y1="18.8" x2="146.5" y2="146.8"/>
			<line class="st1" x1="162.5" y1="18.8" x2="242.5" y2="18.8"/>
			<line class="st1" x1="162.5" y1="34.8" x2="242.5" y2="34.8"/>
			<line class="st1" x1="162.5" y1="50.8" x2="242.5" y2="50.8"/>
			<line class="st1" x1="162.5" y1="66.8" x2="242.5" y2="66.8"/>
			<line class="st1" x1="162.5" y1="82.8" x2="242.5" y2="82.8"/>
			<line class="st1" x1="162.5" y1="98.8" x2="242.5" y2="98.8"/>
			<line class="st1" x1="162.5" y1="114.8" x2="242.5" y2="114.8"/>
			<line class="st1" x1="50.5" y1="18.8" x2="130.5" y2="18.8"/>
			<line class="st1" x1="50.5" y1="34.8" x2="130.5" y2="34.8"/>
			<line class="st1" x1="50.5" y1="50.8" x2="130.5" y2="50.8"/>
			<line class="st1" x1="50.5" y1="66.8" x2="130.5" y2="66.8"/>
			<line class="st1" x1="50.5" y1="82.8" x2="130.5" y2="82.8"/>
			<line class="st1" x1="50.5" y1="98.8" x2="130.5" y2="98.8"/>
			<line class="st1" x1="50.5" y1="114.8" x2="130.5" y2="114.8"/>
		</g>
	</g>
	<polygon class="st3" points="2.5,74.8 146.5,146.8 290.5,74.8 290.5,218.8 2.5,218.8 	"/>
	<g>
		<polyline class="st1" points="258.5,58.8 290.5,74.8 290.5,218.8 2.5,218.8 2.5,74.8 34.5,58.8 		"/>
	</g>
	<polyline class="st1" points="290.5,74.8 146.5,146.8 2.5,74.8 	"/>
	<polyline class="st1" points="2.5,218.8 146.5,146.8 290.5,218.8 	"/>
</g>
</svg>
