<?xml version="1.0" encoding="utf-8"?>
<!-- Generator: Adobe Illustrator 19.1.0, SVG Export Plug-In . SVG Version: 6.00 Build 0)  -->
<svg version="1.1" id="Layer_1" xmlns="http://www.w3.org/2000/svg" xmlns:xlink="http://www.w3.org/1999/xlink" x="0px" y="0px"
	 viewBox="0 0 357 317" style="enable-background:new 0 0 357 317;" xml:space="preserve">
<style type="text/css">
	.st0{fill:none;stroke:#010101;stroke-width:5;stroke-miterlimit:10;}
	.st1{fill:#FFFFFF;stroke:#010101;stroke-width:5;stroke-miterlimit:10;}
</style>
<g>
	<g>
		<line class="st0" x1="170.5" y1="170.5" x2="18.5" y2="170.5"/>
		<circle class="st1" cx="18.5" cy="170.5" r="16"/>
		<line class="st0" x1="177.5" y1="170.5" x2="73.5" y2="82.5"/>
		<line class="st0" x1="177.5" y1="170.5" x2="253" y2="63.5"/>
		<line class="st0" x1="177.5" y1="170.5" x2="178.5" y2="18.5"/>
		<line class="st0" x1="177.5" y1="170.5" x2="338.5" y2="170.5"/>
		<line class="st0" x1="177.5" y1="170.5" x2="281.5" y2="242.5"/>
		<line class="st0" x1="177.5" y1="170.5" x2="60.5" y2="214.5"/>
		<path class="st0" d="M258,170.5c0,44.5-36,80.5-80.5,80.5C133,251,97,215,97,170.5C97,126,133,90,177.5,90
			C222,90,258,126,258,170.5z"/>
		<path class="st1" d="M209.5,170.5c0,17.7-14.3,32-32,32c-17.7,0-32-14.3-32-32c0-17.7,14.3-32,32-32
			C195.2,138.5,209.5,152.8,209.5,170.5z"/>
		<circle class="st1" cx="177.5" cy="170.5" r="20"/>
		<path class="st1" d="M219.5,218.5c-2.4,0-4.6,1.1-6.1,2.8c-0.6-3.9-3.9-6.8-7.9-6.8c-2.4,0-4.6,1.1-6.1,2.8
			c-0.6-3.9-3.9-6.8-7.9-6.8c-2.4,0-4.6,1.1-6.1,2.8v-44c-0.6-3.9-3.9-6.8-7.9-6.8c-4.4,0-8,3.6-8,8v40v8.3v7.7v16c-6.7-5-15-8-24-8
			c-4.4,0-8,3.6-8,8c0,4.4,3.6,8,8,8c13.2,0,24,17.8,24,31v9h58v-32v-20v-6v-6C227.5,222.1,223.9,218.5,219.5,218.5z"/>
		<circle class="st1" cx="253" cy="63.5" r="16"/>
		<circle class="st1" cx="281.5" cy="242.5" r="16"/>
		<circle class="st1" cx="73.5" cy="82.5" r="16"/>
		<circle class="st1" cx="338.5" cy="170.5" r="16"/>
		<circle class="st1" cx="178.5" cy="18.5" r="16"/>
		<circle class="st1" cx="60.5" cy="214.5" r="16"/>
		<rect x="164.5" y="290.5" class="st1" width="67" height="24"/>
		<circle class="st1" cx="274.5" cy="98.5" r="8"/>
		<circle class="st1" cx="98.5" cy="242.5" r="8"/>
		<circle class="st1" cx="114.4" cy="34.5" r="6"/>
		<circle class="st1" cx="258.5" cy="266.5" r="6"/>
		<circle class="st1" cx="82.5" cy="269" r="5.5"/>
	</g>
</g>
</svg>
