<?xml version="1.0" encoding="utf-8"?>
<!-- Generator: Adobe Illustrator 19.1.0, SVG Export Plug-In . SVG Version: 6.00 Build 0)  -->
<svg version="1.1" id="Layer_1" xmlns="http://www.w3.org/2000/svg" xmlns:xlink="http://www.w3.org/1999/xlink" x="0px" y="0px"
	 viewBox="0 0 178 314.5" style="enable-background:new 0 0 178 314.5;" xml:space="preserve">
<style type="text/css">
	.st0{fill:#FFFFFF;}
	.st1{fill:none;stroke:#010101;stroke-width:5;stroke-miterlimit:10;}
</style>
<g>
	<path class="st0" d="M68,0C30.4,0,0,30.4,0,68c0,37.6,30.4,68,68,68c37.6,0,68-30.4,68-68C136,30.4,105.6,0,68,0z M68,104
		c-19.9,0-36-16.1-36-36c0-19.9,16.1-36,36-36c19.9,0,36,16.1,36,36C104,87.9,87.9,104,68,104z"/>
	<line class="st1" x1="93" y1="23.8" x2="82.7" y2="41.6"/>
	<line class="st1" x1="111.7" y1="42.5" x2="93.9" y2="52.8"/>
	<line class="st1" x1="41.1" y1="83.2" x2="23.3" y2="93.5"/>
	<line class="st1" x1="37.1" y1="68" x2="16.5" y2="68"/>
	<line class="st1" x1="118.5" y1="68" x2="97.9" y2="68"/>
	<line class="st1" x1="23.3" y1="42.5" x2="41.1" y2="52.8"/>
	<line class="st1" x1="93.9" y1="83.2" x2="111.7" y2="93.5"/>
	<line class="st1" x1="52.3" y1="41.6" x2="42" y2="23.8"/>
	<line class="st1" x1="67.5" y1="17" x2="67.5" y2="37.6"/>
	<line class="st1" x1="23.5" y1="248" x2="23.5" y2="168"/>
	<path class="st1" d="M23.5,168c0-6.6,5.4-12,12-12c6.6,0,12,5.4,12,12"/>
	<path class="st1" d="M55.5,208V68c0-6.6,5.4-12,12-12c6.6,0,12,5.4,12,12v140"/>
	<path class="st1" d="M87.5,312c-35.4,0-64-28.6-64-64"/>
	<path class="st1" d="M175.5,264c0,26.5-21.5,48-48,48"/>
	<path class="st1" d="M95.5,264c0-26.5-21.5-48-48-48v-48"/>
	<line class="st1" x1="175.5" y1="264" x2="175.5" y2="216"/>
	<line class="st1" x1="87.5" y1="159.9" x2="87.5" y2="203"/>
	<line class="st1" x1="111.5" y1="159.9" x2="111.5" y2="203"/>
	<path class="st1" d="M111.5,203c0,6.6-5.4,12-12,12c-6.6,0-12-5.4-12-12"/>
	<path class="st1" d="M87.5,160c0-6.6,5.4-12,12-12c6.6,0,12,5.4,12,12"/>
	<path class="st1" d="M143.5,203c0,6.6-5.4,12-12,12c-6.6,0-12-5.4-12-12"/>
	<path class="st1" d="M119.5,164c0-6.6,5.4-12,12-12c6.6,0,12,5.4,12,12"/>
	<path class="st1" d="M175.5,203c0,6.6-5.4,12-12,12c-6.6,0-12-5.4-12-12"/>
	<path class="st1" d="M151.5,168c0-6.6,5.4-12,12-12c6.6,0,12,5.4,12,12"/>
	<line class="st1" x1="175.5" y1="203" x2="175.5" y2="168"/>
	<line class="st1" x1="151.5" y1="168" x2="151.5" y2="203"/>
	<line class="st1" x1="143.5" y1="203" x2="143.5" y2="164"/>
	<line class="st1" x1="119.5" y1="164" x2="119.5" y2="203"/>
</g>
</svg>
