<?xml version="1.0" encoding="utf-8"?>
<!-- Generator: Adobe Illustrator 19.2.1, SVG Export Plug-In . SVG Version: 6.00 Build 0)  -->
<svg version="1.1" id="Layer_1" xmlns="http://www.w3.org/2000/svg" xmlns:xlink="http://www.w3.org/1999/xlink" x="0px" y="0px"
	 viewBox="0 0 59.1 58" style="enable-background:new 0 0 59.1 58;" xml:space="preserve">
<style type="text/css">
	.st0{fill:#FFFFFF;stroke:#072C49;stroke-width:1.5;stroke-miterlimit:10;}
	.st1{fill:none;stroke:#072C49;stroke-width:1.5;stroke-miterlimit:10;}
</style>
<g>
	<path class="st0" d="M45.8,12.6h7.9v35.7c0,2.2-1.8,4-4,4H10.2c-2.2,0-4-1.8-4-4v-41h39.6v41"/>
	<rect x="9.7" y="11.3" class="st1" width="32.8" height="5"/>
	<line class="st1" x1="9.1" y1="19.4" x2="43.2" y2="19.4"/>
	<line class="st1" x1="9.1" y1="38.5" x2="43.2" y2="38.5"/>
	<line class="st1" x1="9.1" y1="42.3" x2="43.2" y2="42.3"/>
	<line class="st1" x1="9.1" y1="46.1" x2="43.2" y2="46.1"/>
	<line class="st1" x1="27.7" y1="23.3" x2="43.2" y2="23.3"/>
	<line class="st1" x1="27.7" y1="27.1" x2="43.2" y2="27.1"/>
	<line class="st1" x1="27.7" y1="30.9" x2="43.2" y2="30.9"/>
	<line class="st1" x1="27.7" y1="34.7" x2="43.2" y2="34.7"/>
	<rect x="9.7" y="23.3" class="st1" width="14.5" height="11.4"/>
	<path class="st1" d="M49.8,52.2c-2.2,0-4-1.8-4-4"/>
</g>
</svg>
