<?xml version="1.0" encoding="utf-8"?>
<!-- Generator: Adobe Illustrator 19.1.0, SVG Export Plug-In . SVG Version: 6.00 Build 0)  -->
<svg version="1.1" id="Layer_1" xmlns="http://www.w3.org/2000/svg" xmlns:xlink="http://www.w3.org/1999/xlink" x="0px" y="0px"
	 viewBox="0 0 270.5 293" style="enable-background:new 0 0 270.5 293;" xml:space="preserve">
<style type="text/css">
	.st0{fill:#FFFFFF;}
	.st1{fill:none;stroke:#FFFFFF;stroke-width:5;stroke-miterlimit:10;}
	.st2{fill:none;stroke:#010101;stroke-width:5;stroke-miterlimit:10;}
</style>
<g>
	<rect x="2.5" y="2.5" class="st0" width="16" height="240"/>
	<rect x="18.5" y="242.5" class="st0" width="240" height="16"/>
	<rect x="34.5" y="2.5" class="st1" width="224" height="224"/>
	<line class="st1" x1="146.5" y1="226.5" x2="146.5" y2="2.5"/>
	<line class="st1" x1="34.5" y1="114.5" x2="258.5" y2="114.5"/>
	<line class="st1" x1="202.5" y1="2.5" x2="202.5" y2="226.5"/>
	<line class="st1" x1="90.5" y1="226.5" x2="90.5" y2="2.5"/>
	<line class="st1" x1="258.5" y1="58.5" x2="34.5" y2="58.5"/>
	<line class="st1" x1="258.5" y1="170.5" x2="34.5" y2="170.5"/>
	<line class="st1" x1="34.5" y1="226.5" x2="34.5" y2="2.5"/>
	<line class="st1" x1="258.5" y1="226.5" x2="34.5" y2="226.5"/>
	<rect x="20.8" y="242.5" class="st2" width="237.7" height="16"/>
	<rect x="2.5" y="2.5" class="st2" width="16" height="240"/>
	<polygon class="st2" points="26.5,290.5 10.5,290.5 18.5,274.5 	"/>
	<polygon class="st2" points="266.5,290.5 250.5,290.5 258.5,274.5 	"/>
	<rect x="34.5" y="210.5" class="st2" width="16" height="16"/>
	<rect x="242.5" y="2.5" class="st2" width="16" height="16"/>
	<line class="st2" x1="242.5" y1="18.5" x2="50.5" y2="210.5"/>
</g>
</svg>
