<?xml version="1.0" encoding="utf-8"?>
<!-- Generator: Adobe Illustrator 19.1.0, SVG Export Plug-In . SVG Version: 6.00 Build 0)  -->
<svg version="1.1" id="Layer_1" xmlns="http://www.w3.org/2000/svg" xmlns:xlink="http://www.w3.org/1999/xlink" x="0px" y="0px"
	 viewBox="0 0 361 189" style="enable-background:new 0 0 361 189;" xml:space="preserve">
<style type="text/css">
	.st0{fill:#FFFFFF;stroke:#010101;stroke-width:5;stroke-miterlimit:10;}
	.st1{fill:none;stroke:#010101;stroke-width:5;stroke-miterlimit:10;}
	.st2{fill:#FFFFFF;}
	.st3{fill:#010101;}
</style>
<g>
	<g>
		<rect x="14.5" y="42.5" class="st0" width="160" height="64.5"/>
		<rect x="14.5" y="10.5" class="st0" width="24" height="8"/>
		<rect x="70.5" y="58.5" class="st1" width="88" height="32"/>
		<polygon class="st1" points="190.5,86.5 174.5,94.5 174.5,54.5 190.5,62.5 		"/>
		<polygon class="st1" points="206.5,86.5 190.5,94.5 190.5,54.5 206.5,62.5 		"/>
		<polygon class="st1" points="222.5,86.5 206.5,94.5 206.5,54.5 222.5,62.5 		"/>
		<rect x="222.5" y="66.5" class="st0" width="48" height="16"/>
		<polygon class="st0" points="278.5,58.5 270.5,66.5 270.5,82.5 278.5,90.5 334.5,90.5 334.5,58.5 		"/>
		<rect x="302.5" y="74.5" class="st0" width="8" height="24"/>
		<rect x="318.5" y="74.5" class="st0" width="8" height="24"/>
		<rect x="286.5" y="74.5" class="st0" width="8" height="24"/>
		<polygon class="st0" points="334.5,42.5 294.5,58.5 334.5,58.5 		"/>
		<circle class="st1" cx="350.5" cy="74.5" r="8"/>
		<line class="st1" x1="342.5" y1="74.5" x2="334.5" y2="74.5"/>
		<path class="st1" d="M94.5,114.5c0,13.3,10.7,24,24,24"/>
		<polygon class="st1" points="14.5,186.5 62.5,186.5 94.5,107 46.5,107 		"/>
		<g>
			<polyline class="st1" points="78.5,146.7 126.5,146.7 142.5,107 			"/>
		</g>
		<line class="st1" x1="278.5" y1="58.5" x2="278.5" y2="90.5"/>
		<rect x="118.5" y="74.5" class="st0" width="40" height="40"/>
		<line class="st1" x1="126.5" y1="82.5" x2="126.5" y2="106.5"/>
		<line class="st1" x1="134.5" y1="82.5" x2="134.5" y2="106.5"/>
		<line class="st1" x1="142.5" y1="82.5" x2="142.5" y2="106.5"/>
		<g>
			<polygon class="st2" points="29.4,176 53.2,117 79.7,117 55.9,176 			"/>
			<g>
				<path class="st3" d="M76,119.5l-21.7,54H33.1l21.7-54H76 M83.4,114.5H51.5l-25.8,64h31.9L83.4,114.5L83.4,114.5z"/>
			</g>
		</g>
		<line class="st1" x1="118.5" y1="114.5" x2="94.5" y2="114.5"/>
		<line class="st1" x1="46.5" y1="74.5" x2="46.5" y2="58.5"/>
		<path class="st1" d="M30.5,74.5c0-8.8,7.2-16,16-16c8.8,0,16,7.2,16,16s-7.2,16-16,16"/>
		<rect x="6.5" y="50.5" class="st1" width="8" height="48"/>
		<polygon class="st0" points="86.5,18.5 38.5,18.5 46.5,42.5 94.5,42.5 		"/>
		<line class="st1" x1="110.5" y1="2.5" x2="110.5" y2="26.5"/>
		<circle class="st1" cx="110.5" cy="14.5" r="12"/>
		<circle class="st0" cx="14.5" cy="14.5" r="12"/>
		<rect x="30.5" y="2.5" class="st0" width="80" height="24"/>
		<circle class="st0" cx="46.5" cy="74.5" r="8"/>
	</g>
</g>
</svg>
