<?xml version="1.0" encoding="utf-8"?>
<!-- Generator: Adobe Illustrator 19.1.0, SVG Export Plug-In . SVG Version: 6.00 Build 0)  -->
<svg version="1.1" id="Layer_1" xmlns="http://www.w3.org/2000/svg" xmlns:xlink="http://www.w3.org/1999/xlink" x="0px" y="0px"
	 viewBox="0 0 294.3 261" style="enable-background:new 0 0 294.3 261;" xml:space="preserve">
<style type="text/css">
	.st0{fill:none;stroke:#010101;stroke-width:5;stroke-miterlimit:10;}
	.st1{fill:#FFFFFF;stroke:#010101;stroke-width:5;stroke-miterlimit:10;}
	.st2{fill:#BFE3DA;stroke:#010101;stroke-width:5;stroke-miterlimit:10;}
</style>
<g>
	<g>
		<path class="st0" d="M170.5,202.4c0,0-19.6-8-24-8h-80v16h80C150.9,210.4,170.5,202.4,170.5,202.4z"/>
		<path class="st0" d="M154.5,234.4c0,0-19.6-8-24-8h-64v16h64C134.9,242.4,154.5,234.4,154.5,234.4z"/>
		<path class="st0" d="M170.5,58.5c0,0-19.6,8-24,8h-80v-16h80C150.9,50.5,170.5,58.5,170.5,58.5z"/>
		<path class="st0" d="M154.5,26.5c0,0-19.6,8-24,8h-64v-16h64C134.9,18.5,154.5,26.5,154.5,26.5z"/>
		<rect x="2.5" y="98.5" class="st0" width="16" height="16"/>
		<rect x="2.5" y="146.5" class="st0" width="16" height="16"/>
		<rect x="2.5" y="122.5" class="st0" width="16" height="16"/>
		<polygon class="st0" points="6.5,218.5 10.5,162.5 66.5,162.5 18.5,218.5 		"/>
		<polygon class="st0" points="6.5,42.5 10.5,98.5 66.5,98.5 18.5,42.5 		"/>
		<path class="st1" d="M98.5,258.5l75.4-96l0,0l76.6-16c22.1,0,40-16,40-16s-17.9-16-40-16l-76.5-16l0,0l-75.3-96H74.5l4.6,96H10.5
			v16v32v16h68.6l-4.6,96H98.5z"/>
		<line class="st2" x1="10.5" y1="114.5" x2="66.5" y2="114.5"/>
		<line class="st2" x1="10.5" y1="146.5" x2="66.5" y2="146.5"/>
		<line class="st2" x1="82.5" y1="106.5" x2="170.5" y2="106.5"/>
		<line class="st2" x1="170.5" y1="154.5" x2="82.5" y2="154.5"/>
		<g>
			<path class="st2" d="M240.8,120.5c1,3.2,1.5,6.5,1.5,10c0,3.5-0.5,6.8-1.5,10"/>
		</g>
		<line class="st2" x1="250.5" y1="114.5" x2="138.5" y2="114.5"/>
		<line class="st2" x1="250.5" y1="146.5" x2="138.5" y2="146.5"/>
	</g>
</g>
</svg>
