<?xml version="1.0" encoding="utf-8"?>
<!-- Generator: Adobe Illustrator 19.1.0, SVG Export Plug-In . SVG Version: 6.00 Build 0)  -->
<svg version="1.1" id="Layer_1" xmlns="http://www.w3.org/2000/svg" xmlns:xlink="http://www.w3.org/1999/xlink" x="0px" y="0px"
	 viewBox="0 0 224.5 277" style="enable-background:new 0 0 224.5 277;" xml:space="preserve">
<style type="text/css">
	.st0{fill:none;stroke:#010101;stroke-width:5;stroke-miterlimit:10;}
	.st1{fill:#FFFFFF;}
	.st2{fill:#FFFFFF;stroke:#010101;stroke-width:5;stroke-miterlimit:10;}
</style>
<g>
	<g>
		<g>
			<g>
				<line class="st0" x1="168.4" y1="1.2" x2="56.1" y2="195.7"/>
			</g>
			<g>
				<line class="st0" x1="195.4" y1="50.5" x2="29.1" y2="146.5"/>
			</g>
			<g>
				<line class="st0" x1="224.5" y1="98.5" x2="0" y2="98.5"/>
			</g>
			<g>
				<line class="st0" x1="195.4" y1="146.5" x2="29.1" y2="50.5"/>
			</g>
			<g>
				<line class="st0" x1="168.4" y1="195.7" x2="56.1" y2="1.2"/>
			</g>
			<g>
				<line class="st0" x1="112.3" y1="159.5" x2="112.3" y2="2.5"/>
			</g>
		</g>
		<circle class="st1" cx="112.3" cy="98.3" r="80.5"/>
	</g>
	<g>
		<path class="st2" d="M144.3,82.5c-4.9,0-9.4,1.5-13.2,4c-0.4-0.5-0.9-1-1.3-1.5c4-4.3,6.5-10.1,6.5-16.4c0-13.3-10.7-24-24-24
			s-24,10.7-24,24c0,6.4,2.5,12.1,6.5,16.4c-0.5,0.5-0.9,1-1.3,1.5c-3.8-2.5-8.3-4-13.2-4c-13.3,0-24,10.7-24,24
			c0,13.3,10.7,24,24,24c7.6,0,14.4-3.6,18.8-9.1c1.6,1.1,3.4,1.9,5.2,2.6v150.5h16h24v-16h-8v-16h8v-16h-24V123.9
			c1.8-0.7,3.6-1.5,5.2-2.6c4.4,5.5,11.2,9.1,18.8,9.1c13.3,0,24-10.7,24-24C168.3,93.2,157.5,82.5,144.3,82.5z M112.3,60.5
			c4.4,0,8,3.6,8,8c0,4.4-3.6,8-8,8s-8-3.6-8-8C104.3,64.1,107.9,60.5,112.3,60.5z M80.3,114.5c-4.4,0-8-3.6-8-8c0-4.4,3.6-8,8-8
			s8,3.6,8,8C88.3,110.9,84.7,114.5,80.3,114.5z M144.3,114.5c-4.4,0-8-3.6-8-8c0-4.4,3.6-8,8-8s8,3.6,8,8
			C152.3,110.9,148.7,114.5,144.3,114.5z"/>
		<line class="st0" x1="120.3" y1="242.5" x2="120.3" y2="258.5"/>
	</g>
</g>
</svg>
