<?xml version="1.0" encoding="utf-8"?>
<!-- Generator: Adobe Illustrator 19.2.0, SVG Export Plug-In . SVG Version: 6.00 Build 0)  -->
<svg version="1.1" id="Layer_1" xmlns="http://www.w3.org/2000/svg" xmlns:xlink="http://www.w3.org/1999/xlink" x="0px" y="0px"
	 viewBox="0 0 231.2 146.2" style="enable-background:new 0 0 231.2 146.2;" xml:space="preserve">
<style type="text/css">
	.st0{fill:#22205F;}
	.st1{fill:#CB2027;}
	.st2{fill:#F8991D;}
	.st3{fill:#FFFFFF;}
</style>
<g>
	<rect class="st0" width="231.2" height="146.2"/>
	<g>
		<g>
			<g>
				<circle class="st1" cx="73.1" cy="73.1" r="63.3"/>
				<g>
					<path class="st2" d="M158.1,9.8c-16.4,0-31.2,6.2-42.5,16.4c-2.3,2.1-4.4,4.3-6.4,6.7H122c1.7,2.1,3.4,4.4,4.8,6.7h-22.4
						c-1.3,2.2-2.6,4.4-3.6,6.7h29.7c1,2.2,1.9,4.4,2.7,6.7H98.1c-0.7,2.2-1.3,4.4-1.8,6.7H135c0.9,4.3,1.4,8.8,1.4,13.4
						c0,7-1.1,13.8-3.3,20.1H98.1c0.8,2.3,1.7,4.5,2.7,6.7h29.7c-1.1,2.3-2.3,4.5-3.7,6.7h-22.4c1.5,2.3,3.1,4.6,4.8,6.7H122
						c-2,2.4-4.1,4.6-6.4,6.7c11.2,10.2,26.1,16.4,42.5,16.4c34.9,0,63.3-28.3,63.3-63.3C221.4,38.2,193,9.8,158.1,9.8z"/>
				</g>
			</g>
			<path class="st2" d="M212.9,108.4c0-1.1,0.9-2,2-2c1.1,0,2,0.9,2,2c0,1.1-0.9,2-2,2C213.8,110.4,212.9,109.5,212.9,108.4z
				 M215,109.9c0.9,0,1.6-0.7,1.6-1.6c0-0.9-0.7-1.6-1.6-1.6c-0.9,0-1.6,0.7-1.6,1.6C213.4,109.3,214.1,109.9,215,109.9z
				 M214.7,109.3h-0.4v-1.8h0.8c0.2,0,0.3,0,0.5,0.1c0.1,0.1,0.2,0.3,0.2,0.5c0,0.2-0.1,0.4-0.3,0.5l0.3,0.8h-0.5l-0.3-0.7h-0.3
				V109.3z M214.7,108.3h0.2c0.1,0,0.2,0,0.3,0c0.1,0,0.1-0.1,0.1-0.2c0-0.1,0-0.1-0.1-0.2c-0.1,0-0.2,0-0.3,0h-0.2V108.3z"/>
		</g>
		<g>
			<g>
				<path class="st0" d="M58.3,80c-0.7-0.1-1-0.1-1.5-0.1c-3.9,0-5.9,1.3-5.9,4c0,1.6,1,2.7,2.5,2.7C56.2,86.6,58.2,83.9,58.3,80z
					 M63.3,91.7c-0.9,0-5.7,0-5.7,0l0.1-2.7c-1.7,2.1-4.1,3.2-7.2,3.2c-3.7,0-6.3-2.9-6.3-7.1c0-6.4,4.4-10.1,12.1-10.1
					c0.8,0,1.8,0.1,2.8,0.2c0.2-0.9,0.3-1.2,0.3-1.7c0-1.7-1.2-2.4-4.4-2.4c-3.4,0-6.1,0.8-7.3,1.2c0.1-0.4,1-5.9,1-5.9
					c3.4-1,5.7-1.4,8.2-1.4c5.9,0,9,2.6,9,7.7c0,1.3-0.2,3-0.6,5.2C64.8,81.6,63.5,89.7,63.3,91.7z"/>
				<polygon class="st0" points="41.4,91.7 34.6,91.7 38.5,67 29.7,91.7 25,91.7 24.4,67.1 20.3,91.7 13.9,91.7 19.3,59.6 
					29.1,59.6 29.7,77.5 35.8,59.6 46.7,59.6 				"/>
				<path class="st0" d="M166.6,80c-0.7-0.1-1-0.1-1.5-0.1c-3.9,0-5.9,1.3-5.9,4c0,1.6,1,2.7,2.5,2.7
					C164.4,86.6,166.4,83.9,166.6,80z M171.6,91.7c-0.9,0-5.7,0-5.7,0L166,89c-1.7,2.1-4.1,3.2-7.2,3.2c-3.7,0-6.3-2.9-6.3-7.1
					c0-6.4,4.4-10.1,12.1-10.1c0.8,0,1.8,0.1,2.8,0.2c0.2-0.9,0.3-1.2,0.3-1.7c0-1.7-1.2-2.4-4.4-2.4c-3.4,0-6.1,0.8-7.3,1.2
					c0.1-0.4,1-5.9,1-5.9c3.4-1,5.7-1.4,8.2-1.4c5.9,0,9,2.6,9,7.7c0,1.3-0.2,3-0.6,5.2C173,81.6,171.7,89.7,171.6,91.7z"/>
				<path class="st0" d="M93.9,91.3c-1.9,0.6-3.3,0.8-4.9,0.8c-3.5,0-5.4-2-5.4-5.7c0-1.2,0.5-4.2,0.9-7c0.4-2.4,3-17.8,3-17.8h6.8
					l-0.8,4h4.1l-0.9,6.3h-4.1c-0.8,5-1.9,11.1-1.9,12c0,1.3,0.7,1.9,2.4,1.9c0.8,0,1.4-0.1,1.9-0.2L93.9,91.3z"/>
				<path class="st0" d="M114.8,91.1c-2.3,0.7-4.6,1.1-7,1.1c-7.6,0-11.6-4-11.6-11.6c0-8.9,5.1-15.5,12-15.5c5.6,0,9.2,3.7,9.2,9.4
					c0,1.9-0.2,3.8-0.8,6.4h-13.6c-0.5,3.8,2,5.4,5.9,5.4c2.4,0,4.6-0.5,7.1-1.6L114.8,91.1z M111,75.6c0-0.5,0.7-4.7-3.2-4.7
					c-2.2,0-3.7,1.7-4.4,4.7H111z"/>
				<path class="st0" d="M67.5,73.8c0,3.3,1.6,5.6,5.2,7.3c2.8,1.3,3.2,1.7,3.2,2.9c0,1.6-1.2,2.4-3.9,2.4c-2.1,0-4-0.3-6.2-1
					c0,0-0.9,5.8-0.9,6c1.6,0.3,3,0.7,7.1,0.8c7.2,0,10.6-2.8,10.6-8.7c0-3.6-1.4-5.7-4.8-7.3c-2.9-1.3-3.2-1.6-3.2-2.8
					c0-1.4,1.1-2.1,3.4-2.1c1.3,0,3.2,0.1,4.9,0.4l1-6.1c-1.8-0.3-4.5-0.5-6-0.5C70.1,65,67.4,69,67.5,73.8z"/>
				<path class="st0" d="M148.2,65.7c1.9,0,3.7,0.5,6.1,1.7l1.1-7c-1-0.4-4.6-2.7-7.6-2.7c-4.6,0-8.5,2.3-11.2,6
					c-4-1.3-5.6,1.3-7.6,4l-1.8,0.4c0.1-0.9,0.3-1.7,0.2-2.6h-6.3c-0.9,8.1-2.4,16.3-3.6,24.3l-0.3,1.8h6.9
					c1.1-7.5,1.8-12.2,2.2-15.5l2.6-1.4c0.4-1.4,1.6-1.9,4-1.9c-0.3,1.7-0.5,3.5-0.5,5.4c0,8.5,4.6,13.9,12,13.9
					c1.9,0,3.5-0.3,6.1-0.9l1.2-7.3c-2.3,1.1-4.1,1.6-5.8,1.6c-4,0-6.4-2.9-6.4-7.8C139.5,70.6,143.1,65.7,148.2,65.7z"/>
				<path class="st0" d="M206.4,59.6l-1.5,9.3c-1.9-2.5-3.9-4.3-6.6-4.3c-3.5,0-6.6,2.6-8.7,6.5c-2.9-0.6-5.8-1.6-5.8-1.6l0,0
					c0.2-2.2,0.3-3.5,0.3-3.9h-6.3c-0.9,8.1-2.4,16.3-3.6,24.3l-0.3,1.8h6.9c0.9-6,1.6-11,2.2-15c2.3-2.1,3.5-4,5.9-3.9
					c-1.1,2.5-1.7,5.5-1.7,8.5c0,6.5,3.3,10.8,8.3,10.8c2.5,0,4.4-0.9,6.3-2.9l-0.3,2.4h6.5l5.2-32.1H206.4z M197.8,85.6
					c-2.3,0-3.5-1.7-3.5-5.1c0-5.1,2.2-8.8,5.3-8.8c2.4,0,3.6,1.8,3.6,5.1C203.2,82,201,85.6,197.8,85.6z"/>
			</g>
			<g>
				<polygon class="st3" points="43.4,89.8 36.5,89.8 40.5,65.1 31.7,89.8 27,89.8 26.4,65.2 22.3,89.8 15.9,89.8 21.2,57.7 
					31.1,57.7 31.4,77.5 38,57.7 48.7,57.7 				"/>
				<path class="st3" d="M60.3,78.1c-0.7-0.1-1-0.1-1.5-0.1c-3.9,0-5.9,1.3-5.9,4c0,1.6,1,2.7,2.5,2.7C58.2,84.7,60.2,82,60.3,78.1z
					 M65.3,89.8c-0.9,0-5.7,0-5.7,0l0.1-2.7c-1.7,2.1-4.1,3.2-7.2,3.2c-3.7,0-6.3-2.9-6.3-7.1c0-6.4,4.4-10.1,12.1-10.1
					c0.8,0,1.8,0.1,2.8,0.2c0.2-0.9,0.3-1.2,0.3-1.7c0-1.7-1.2-2.4-4.4-2.4c-3.4,0-6.1,0.8-7.3,1.2c0.1-0.4,1-5.9,1-5.9
					c3.4-1,5.7-1.4,8.2-1.4c5.9,0,9,2.7,9,7.7c0,1.3-0.2,3-0.6,5.2C66.8,79.7,65.5,87.8,65.3,89.8z"/>
				<path class="st3" d="M157.5,58.5l-1.1,7c-2.5-1.2-4.2-1.7-6.1-1.7c-5.1,0-8.7,5-8.7,12c0,4.9,2.4,7.8,6.4,7.8
					c1.7,0,3.6-0.5,5.8-1.6l-1.2,7.3c-2.5,0.7-4.2,0.9-6.1,0.9c-7.4,0-12-5.3-12-13.9c0-11.5,6.4-19.5,15.5-19.5
					C152.9,56.9,156.5,58.1,157.5,58.5z"/>
				<path class="st3" d="M168.5,78.1c-0.7-0.1-1-0.1-1.5-0.1c-3.9,0-5.9,1.3-5.9,4c0,1.6,1,2.7,2.5,2.7
					C166.4,84.7,168.4,82,168.5,78.1z M173.5,89.8c-0.9,0-5.7,0-5.7,0l0.1-2.7c-1.7,2.1-4.1,3.2-7.2,3.2c-3.7,0-6.3-2.9-6.3-7.1
					c0-6.4,4.4-10.1,12.1-10.1c0.8,0,1.8,0.1,2.8,0.2c0.2-0.9,0.3-1.2,0.3-1.7c0-1.7-1.2-2.4-4.4-2.4c-3.4,0-6.1,0.8-7.3,1.2
					c0.1-0.4,1-5.9,1-5.9c3.4-1,5.7-1.4,8.2-1.4c5.9,0,9,2.7,9,7.7c0,1.3-0.2,3-0.6,5.2C175,79.7,173.7,87.8,173.5,89.8z"/>
				<path class="st3" d="M95.8,89.4c-1.9,0.6-3.3,0.8-4.9,0.8c-3.5,0-5.4-2-5.4-5.7c0-1.2,0.5-4.2,0.9-7c0.4-2.4,3-17.8,3-17.8h6.8
					l-0.8,4h3.5L98,69.9h-3.5c-0.8,5-1.9,11.1-1.9,12c0,1.3,0.7,1.9,2.4,1.9c0.8,0,1.4-0.1,1.9-0.2L95.8,89.4z"/>
				<path class="st3" d="M116.8,89.2c-2.3,0.7-4.6,1.1-7,1.1c-7.6,0-11.6-4-11.6-11.6c0-8.9,5.1-15.5,11.9-15.5
					c5.6,0,9.2,3.7,9.2,9.5c0,1.9-0.3,3.8-0.8,6.4h-13.6c-0.5,3.8,2,5.4,5.9,5.4c2.4,0,4.6-0.5,7.1-1.6L116.8,89.2z M112.9,73.7
					c0-0.5,0.7-4.7-3.2-4.7c-2.2,0-3.7,1.7-4.4,4.7H112.9z"/>
				<path class="st3" d="M69.4,71.9c0,3.3,1.6,5.6,5.2,7.3c2.8,1.3,3.2,1.7,3.2,2.9c0,1.6-1.2,2.4-3.9,2.4c-2,0-4-0.3-6.2-1
					c0,0-0.9,5.8-0.9,6c1.6,0.3,3,0.7,7.1,0.8c7.3,0,10.6-2.8,10.6-8.7c0-3.6-1.4-5.7-4.8-7.3c-2.9-1.3-3.2-1.6-3.2-2.8
					c0-1.4,1.1-2.1,3.4-2.1c1.3,0,3.2,0.1,4.9,0.4l1-6.1c-1.8-0.3-4.5-0.5-6-0.5C72.1,63.1,69.4,67.1,69.4,71.9z"/>
				<path class="st3" d="M209.9,89.8h-6.5l0.3-2.4c-1.9,2-3.8,2.9-6.3,2.9c-5,0-8.3-4.3-8.3-10.8c0-8.7,5.1-16,11.2-16
					c2.7,0,4.7,1.1,6.6,3.6l1.5-9.3h6.8L209.9,89.8z M199.8,83.7c3.2,0,5.4-3.6,5.4-8.8c0-3.3-1.3-5.1-3.6-5.1
					c-3.1,0-5.3,3.6-5.3,8.8C196.2,82,197.4,83.7,199.8,83.7z"/>
				<path class="st3" d="M179.7,63.7c-0.9,8.1-2.4,16.3-3.6,24.3l-0.3,1.8h6.9c2.5-16,3-19.1,6.9-18.7c0.6-3.3,1.8-6.1,2.6-7.6
					c-2.9-0.6-4.5,1-6.6,4.1c0.2-1.3,0.5-2.6,0.4-4H179.7z"/>
				<path class="st3" d="M123.2,63.7c-0.9,8.1-2.4,16.3-3.6,24.3l-0.3,1.8h6.9c2.5-16,3-19.1,6.9-18.7c0.6-3.3,1.8-6.1,2.6-7.6
					c-2.9-0.6-4.5,1-6.6,4.1c0.2-1.3,0.5-2.6,0.4-4H123.2z"/>
				<g>
					<path class="st3" d="M212.9,87.7c0-1.1,0.9-2,2-2c1.1,0,2,0.9,2,2c0,1.1-0.9,2-2,2C213.8,89.8,212.9,88.9,212.9,87.7z
						 M215,89.3c0.9,0,1.6-0.7,1.6-1.6c0-0.9-0.7-1.6-1.6-1.6c-0.9,0-1.6,0.7-1.6,1.6C213.4,88.6,214.1,89.3,215,89.3z M214.7,88.6
						h-0.4v-1.8h0.8c0.2,0,0.3,0,0.5,0.1c0.1,0.1,0.2,0.3,0.2,0.4c0,0.2-0.1,0.4-0.3,0.5l0.3,0.8h-0.5l-0.3-0.7h-0.3V88.6z
						 M214.7,87.6h0.2c0.1,0,0.2,0,0.3,0c0.1,0,0.1-0.1,0.1-0.2c0-0.1,0-0.1-0.1-0.2c-0.1,0-0.2,0-0.3,0h-0.2V87.6z"/>
				</g>
			</g>
		</g>
	</g>
</g>
</svg>
