<?xml version="1.0" encoding="utf-8"?>
<!-- Generator: Adobe Illustrator 19.1.0, SVG Export Plug-In . SVG Version: 6.00 Build 0)  -->
<svg version="1.1" id="Layer_1" xmlns="http://www.w3.org/2000/svg" xmlns:xlink="http://www.w3.org/1999/xlink" x="0px" y="0px"
	 viewBox="0 0 197 293" style="enable-background:new 0 0 197 293;" xml:space="preserve">
<style type="text/css">
	.st0{fill:#FFFFFF;stroke:#010101;stroke-width:5;stroke-miterlimit:10;}
</style>
<g>
	<g>
		<rect x="82.5" y="226.5" class="st0" width="32" height="48"/>
	</g>
	<path class="st0" d="M114.5,82.5v32c26.5,0,48,21.5,48,48c0,26.5-21.5,48-48,48h-32h-16h-64v16h64v16h48c44.1,0,80-35.9,80-80
		C194.5,118.4,158.6,82.5,114.5,82.5z"/>
	<g>
		<rect x="66.5" y="66.5" class="st0" width="64" height="58"/>
	</g>
	<g>
		<g>
			<rect x="30.5" y="114.5" class="st0" width="40" height="64"/>
		</g>
		<g>
			<g>
				<rect x="26.5" y="142.5" class="st0" width="48" height="28"/>
			</g>
		</g>
		<g>
			<rect x="18.5" y="50.5" class="st0" width="64" height="96"/>
		</g>
		<g>
			<rect x="34.5" y="2.5" class="st0" width="32" height="48"/>
		</g>
	</g>
	<g>
		<circle class="st0" cx="82.5" cy="114.5" r="32"/>
	</g>
	<g>
		<circle class="st0" cx="82.5" cy="114.5" r="16"/>
	</g>
	<g>
		<rect x="2.5" y="274.5" class="st0" width="192" height="16"/>
	</g>
	<rect x="18.5" y="66.5" class="st0" width="64" height="16"/>
</g>
</svg>
