<?xml version="1.0" encoding="utf-8"?>
<!-- Generator: Adobe Illustrator 19.2.1, SVG Export Plug-In . SVG Version: 6.00 Build 0)  -->
<svg version="1.1" id="Layer_1" xmlns="http://www.w3.org/2000/svg" xmlns:xlink="http://www.w3.org/1999/xlink" x="0px" y="0px"
	 viewBox="0 0 126.2 162.2" style="enable-background:new 0 0 126.2 162.2;" xml:space="preserve">
<style type="text/css">
	.st0{fill:#072C49;}
	.st1{clip-path:url(#SVGID_2_);}
	.st2{fill:#FFFFFF;}
	.st3{clip-path:url(#SVGID_4_);}
</style>
<g>
	<polygon class="st0" points="115.2,150.6 45,150.6 45,146.6 111.2,146.6 111.2,80.4 115.2,80.4 	"/>
</g>
<g>
	<defs>
		<rect id="SVGID_1_" width="126.2" height="162.2"/>
	</defs>
	<clipPath id="SVGID_2_">
		<use xlink:href="#SVGID_1_"  style="overflow:visible;"/>
	</clipPath>
	<g class="st1">
		<polygon class="st0" points="113.2,24.2 91,24.2 91,2 95,2 95,20.2 113.2,20.2 		"/>
	</g>
	<g class="st1">
		<polygon class="st0" points="26,150.6 0,150.6 0,0 93.8,0 115.2,21.4 115.2,59.6 111.2,59.6 111.2,23.1 92.2,4 4,4 4,146.6 
			26,146.6 		"/>
	</g>
</g>
<g>
	<rect x="14.6" y="4" class="st2" width="65.7" height="20.2"/>
</g>
<g>
	
		<rect x="32.5" y="125.8" transform="matrix(0.7071 -0.7071 0.7071 0.7071 -82.092 71.2645)" class="st2" width="25" height="17.9"/>
</g>
<g>
	
		<rect x="51.2" y="110.6" transform="matrix(0.7071 -0.7071 0.7071 0.7071 -66.9233 77.5477)" class="st2" width="17.9" height="17.9"/>
</g>
<g>
	
		<rect x="104.8" y="58.8" transform="matrix(0.7071 -0.7071 0.7071 0.7071 -15.0968 99.015)" class="st2" width="14.3" height="17.9"/>
</g>
<g>
	
		<rect x="58.1" y="84.1" transform="matrix(0.7071 -0.7071 0.7071 0.7071 -40.3778 88.5431)" class="st2" width="57.2" height="17.9"/>
</g>
<g>
	
		<rect x="34.1" y="135.9" transform="matrix(0.7071 -0.7071 0.7071 0.7071 -91.8358 67.9723)" class="st0" width="4" height="17.9"/>
</g>
<g>
	<polygon class="st0" points="69.1,86.8 66.3,84 93,57.3 114.7,79 111.8,81.8 93,63 	"/>
</g>
<g>
	<defs>
		<rect id="SVGID_3_" width="126.2" height="162.2"/>
	</defs>
	<clipPath id="SVGID_4_">
		<use xlink:href="#SVGID_3_"  style="overflow:visible;"/>
	</clipPath>
	<g class="st3">
		<path class="st0" d="M18.8,162.2l9.3-24.8l82.6-82.6l15.5,15.5l-82.6,82.6L18.8,162.2z M31.5,139.6l-5.9,15.7l15.7-5.9l79.2-79.2
			l-9.8-9.8L31.5,139.6z"/>
	</g>
</g>
<g>
	
		<rect x="51.8" y="118.2" transform="matrix(0.7071 -0.7071 0.7071 0.7071 -74.1364 75.2979)" class="st0" width="4" height="17.9"/>
</g>
<g>
	
		<rect x="64.5" y="105.6" transform="matrix(0.7071 -0.7071 0.7071 0.7071 -61.4961 80.5338)" class="st0" width="4" height="17.9"/>
</g>
<g>
	<rect x="14.6" y="30.3" class="st0" width="65.7" height="4"/>
</g>
<g>
	<rect x="14.6" y="40.4" class="st0" width="65.7" height="4"/>
</g>
<g>
	<rect x="14.6" y="50.6" class="st0" width="30.3" height="4"/>
</g>
</svg>
