<?xml version="1.0" encoding="utf-8"?>
<!-- Generator: Adobe Illustrator 19.1.0, SVG Export Plug-In . SVG Version: 6.00 Build 0)  -->
<svg version="1.1" id="Layer_1" xmlns="http://www.w3.org/2000/svg" xmlns:xlink="http://www.w3.org/1999/xlink" x="0px" y="0px"
	 viewBox="0 0 165 261.3" style="enable-background:new 0 0 165 261.3;" xml:space="preserve">
<style type="text/css">
	.st0{fill:#FFFFFF;stroke:#010101;stroke-width:5;stroke-miterlimit:10;}
	.st1{fill:none;stroke:#010101;stroke-width:5;stroke-miterlimit:10;}
</style>
<g>
	<rect x="2.5" y="130.8" class="st0" width="160" height="128"/>
	<line class="st1" x1="18.5" y1="66.6" x2="18.5" y2="130.8"/>
	<line class="st1" x1="34.5" y1="66.6" x2="34.5" y2="130.8"/>
	<line class="st1" x1="130.5" y1="66.6" x2="130.5" y2="130.8"/>
	<line class="st1" x1="146.5" y1="66.6" x2="146.5" y2="130.8"/>
	<path class="st1" d="M34.5,66.6c0-26.5,21.5-48,48-48c26.5,0,48,21.5,48,48"/>
	<path class="st1" d="M18.5,66.5c0-35.3,28.7-64,64-64c35.3,0,64,28.7,64,64"/>
	<line class="st1" x1="50.5" y1="130.8" x2="50.5" y2="258.8"/>
	<line class="st1" x1="114.5" y1="130.8" x2="114.5" y2="258.8"/>
	<g>
		<circle class="st0" cx="82.5" cy="194.8" r="16"/>
		<polyline class="st0" points="74.5,194.8 79.8,200.1 90.5,189.4 		"/>
	</g>
</g>
</svg>
