<?xml version="1.0" encoding="utf-8"?>
<!-- Generator: Adobe Illustrator 19.1.0, SVG Export Plug-In . SVG Version: 6.00 Build 0)  -->
<svg version="1.1" id="Layer_1" xmlns="http://www.w3.org/2000/svg" xmlns:xlink="http://www.w3.org/1999/xlink" x="0px" y="0px"
	 viewBox="0 0 197 293" style="enable-background:new 0 0 197 293;" xml:space="preserve">
<style type="text/css">
	.st0{fill:none;}
	.st1{fill:#FFFFFF;stroke:#010101;stroke-width:5;stroke-miterlimit:10;}
	.st2{fill:none;stroke:#010101;stroke-width:5;stroke-miterlimit:10;}
	.st3{fill:#010101;}
</style>
<g>
	<rect x="2.5" y="42.5" class="st0" width="192" height="208"/>
	<circle class="st1" cx="98.6" cy="122.5" r="48"/>
	<g>
		<g>
			<path class="st2" d="M98.9,136c3.7,0,7.1-1.9,9.6-5.1c2.3-2.8,3.9-6.6,4.5-10.9c0.1,0,0.2,0,0.3,0c1.3,0,2.4-1.1,2.4-2.4v-4.8
				v-0.1h0c-0.1-1.3-1.1-2.3-2.4-2.3v-2.4c0-1.3-1.1-2.4-2.4-2.4h-1.6l0,0l0,0c-1.7,0-3.2-0.9-4-2.2c-0.9,1.3-2.3,2.2-4,2.2H86.9
				c-1.3,0-2.4,1.1-2.4,2.4v2.4c-1.3,0-2.3,1-2.4,2.3h0v4.9c0,1.3,1.1,2.4,2.4,2.4c0.1,0,0.2,0,0.3,0c0.6,4.3,2.2,8.1,4.5,10.9
				C91.9,134.1,95.2,136,98.9,136z"/>
			<path class="st2" d="M84.5,110.5v-2.4c0-1.3,1.1-2.4,2.4-2.4h14.4c1.7,0,3.2-0.9,4-2.2c0.9,1.3,2.3,2.2,4,2.2l0,0l0,0h1.6
				c1.3,0,2.4,1.1,2.4,2.4v2.4c1.3,0,2.3,1,2.4,2.3h0v-9.4v-0.1l0,0c0-8-7.6-14.4-16.8-14.4c-9.2,0-16.8,6.4-16.8,14.4h0v0.1v9.4h0
				C82.2,111.5,83.2,110.5,84.5,110.5z"/>
			<path class="st2" d="M98.9,160.9"/>
			<g>
				<path class="st2" d="M133.5,155.5l-2.6-9.1c-0.4-1.3-1.6-2.8-2.8-3.3l-19.5-8.6c0,0,0,0,0,0c0,0-0.1,0-0.1,0
					c-0.6,4.7-4.6,8.4-9.5,8.4c-4.9,0-8.9-3.7-9.5-8.4c0,0-0.1,0-0.1,0c0,0,0,0,0,0l-19.5,8.6c-1.2,0.5-2.5,2-2.8,3.3l-2.7,9.6"/>
			</g>
		</g>
	</g>
	<rect x="2.5" y="2.5" class="st1" width="192" height="40"/>
	<rect x="2.5" y="42.5" class="st2" width="192" height="208"/>
	<rect x="2.5" y="250.5" class="st1" width="192" height="40"/>
	<rect x="82.6" y="218.5" class="st2" width="32" height="16"/>
	<line class="st2" x1="66.6" y1="186.5" x2="130.6" y2="186.5"/>
	<line class="st2" x1="82.6" y1="194.5" x2="114.6" y2="194.5"/>
	<rect x="86.6" y="266.5" class="st3" width="24" height="8"/>
	<rect x="86.6" y="18.5" class="st3" width="24" height="8"/>
</g>
</svg>
