<?xml version="1.0" encoding="utf-8"?>
<!-- Generator: Adobe Illustrator 19.1.0, SVG Export Plug-In . SVG Version: 6.00 Build 0)  -->
<svg version="1.1" id="Layer_1" xmlns="http://www.w3.org/2000/svg" xmlns:xlink="http://www.w3.org/1999/xlink" x="0px" y="0px"
	 viewBox="0 0 350.5 269" style="enable-background:new 0 0 350.5 269;" xml:space="preserve">
<style type="text/css">
	.st0{fill:none;stroke:#010101;stroke-width:5;stroke-miterlimit:10;}
	.st1{fill:#FFFFFF;}
	.st2{fill:#FFFFFF;stroke:#010101;stroke-width:5;stroke-miterlimit:10;}
</style>
<g>
	<g>
		<g>
			<path class="st0" d="M151.5,194.5h-81c-4.4,0-8-3.6-8-8s3.6-8,8-8h40"/>
			<line class="st0" x1="318.5" y1="146.5" x2="218.5" y2="146.5"/>
			<line class="st0" x1="224.5" y1="90.5" x2="294.5" y2="90.5"/>
			<line class="st0" x1="318.5" y1="178.5" x2="110.5" y2="178.5"/>
			<path class="st0" d="M318.5,178.5c8.8,0,16-7.2,16-16c0-8.8-7.2-16-16-16"/>
			<g>
				<path class="st0" d="M214.5,10.5c6.6,0,12,5.4,12,12c0,6.6-5.4,12-12,12"/>
				<path class="st0" d="M58.5,90.5c-4.4,0-8-3.6-8-8s3.6-8,8-8"/>
				<path class="st0" d="M174.5,50.5c-4.4,0-8-3.6-8-8s3.6-8,8-8"/>
				<path class="st0" d="M126.5,58.5c4.4,0,8,3.6,8,8s-3.6,8-8,8"/>
				<line class="st0" x1="214.5" y1="10.5" x2="118.5" y2="10.5"/>
				<path class="st0" d="M118.5,10.5c-13.3,0-24,10.7-24,24s10.7,24,24,24"/>
				<line class="st0" x1="214.5" y1="34.5" x2="174.5" y2="34.5"/>
				<line class="st0" x1="118.5" y1="58.5" x2="126.5" y2="58.5"/>
				<line class="st0" x1="126.5" y1="74.5" x2="58.5" y2="74.5"/>
				<line class="st0" x1="174.5" y1="50.5" x2="262.5" y2="50.5"/>
				<path class="st0" d="M262.5,50.5c6.1,0,11,4.9,11,11c0,6.1-4.9,11-11,11"/>
				<line class="st0" x1="262.5" y1="72.5" x2="214.5" y2="72.5"/>
			</g>
			<line class="st0" x1="58.5" y1="90.5" x2="150.5" y2="90.5"/>
			<line class="st0" x1="110.5" y1="146.5" x2="22.5" y2="146.5"/>
			<path class="st0" d="M22.5,146.5c-11,0-20-9-20-20s9-20,20-20"/>
			<circle class="st1" cx="174.5" cy="138.5" r="80"/>
			<line class="st0" x1="22.5" y1="106.5" x2="294.5" y2="106.5"/>
			<path class="st0" d="M294.5,90.5c4.4,0,8,3.6,8,8s-3.6,8-8,8"/>
			<path class="st0" d="M218.5,266.5h-58c-6.6,0-12-5.4-12-12c0-6.6,5.4-12,12-12h24c4.4,0,8-3.6,8-8s-3.6-8-8-8h-50
				c-4.4,0-8-3.6-8-8s3.6-8,8-8h26c4.4,0,8-3.6,8-8s-3.6-8-8-8h-6c-6.6,0-12-5.4-12-12c0-6.6,5.4-12,12-12h62c6.6,0,12,5.4,12,12
				c0,6.6-5.4,12-12,12h-24c-4.4,0-8,3.6-8,8s3.6,8,8,8h26c15.5,0,28,12.5,28,28S234,266.5,218.5,266.5z"/>
		</g>
		<circle class="st0" cx="302.5" cy="242.5" r="8"/>
		<circle class="st1" cx="62.5" cy="50.5" r="4"/>
		<circle class="st1" cx="278.5" cy="202.5" r="4"/>
		<circle class="st1" cx="266.5" cy="14.5" r="4"/>
		<circle class="st1" cx="110.5" cy="234.5" r="4"/>
		<circle class="st1" cx="86.5" cy="250.5" r="8"/>
		<path class="st0" d="M53.5,14.5c0-4.4,2.4-8.3,6-10.4c-1.8-1-3.8-1.6-6-1.6c-6.6,0-12,5.4-12,12s5.4,12,12,12c2.2,0,4.2-0.6,6-1.6
			C55.9,22.8,53.5,18.9,53.5,14.5z"/>
		<circle class="st0" cx="18.5" cy="194.5" r="4"/>
		<circle class="st0" cx="332.5" cy="72.5" r="6"/>
		<circle class="st1" cx="346.5" cy="94.5" r="4"/>
		<polygon class="st2" points="164.5,133.2 155.8,133.2 145.1,138.5 155.8,143.8 164.5,143.8 195.9,158.5 195.9,143.8 195.9,133.2 
			195.9,118.5 		"/>
		<line class="st0" x1="164.5" y1="143.8" x2="195.9" y2="143.8"/>
		<line class="st0" x1="164.5" y1="133.2" x2="195.9" y2="133.2"/>
	</g>
</g>
</svg>
