<?xml version="1.0" encoding="utf-8"?>
<!-- Generator: Adobe Illustrator 19.2.1, SVG Export Plug-In . SVG Version: 6.00 Build 0)  -->
<svg version="1.1" id="Layer_1" xmlns="http://www.w3.org/2000/svg" xmlns:xlink="http://www.w3.org/1999/xlink" x="0px" y="0px"
	 viewBox="0 0 147.4 147.4" style="enable-background:new 0 0 147.4 147.4;" xml:space="preserve">
<style type="text/css">
	.st0{fill:#FFFFFF;stroke:#072C49;stroke-width:1.75;stroke-miterlimit:10;}
</style>
<g>
	<circle class="st0" cx="98.1" cy="28.4" r="10.4"/>
	<circle class="st0" cx="49.3" cy="77.2" r="31.3"/>
	<path class="st0" d="M80.7,77.2c0-11.5-14-20.9-31.3-20.9"/>
	<rect x="49.3" y="45.8" class="st0" width="13.9" height="62.7"/>
	<line class="st0" x1="63.3" y1="52.8" x2="129.4" y2="45.8"/>
	<line class="st0" x1="129.4" y1="77.2" x2="63.3" y2="77.2"/>
	<line class="st0" x1="63.3" y1="101.6" x2="129.4" y2="108.5"/>
	<path class="st0" d="M18,77.2c0-11.5,14-20.9,31.3-20.9"/>
	<line class="st0" x1="49.3" y1="52.8" x2="63.3" y2="52.8"/>
	<line class="st0" x1="49.3" y1="101.6" x2="63.3" y2="101.6"/>
	<line class="st0" x1="49.3" y1="77.2" x2="63.3" y2="77.2"/>
	<circle class="st0" cx="87.6" cy="125.9" r="3.5"/>
	<circle class="st0" cx="30.2" cy="30.2" r="1.7"/>
	<circle class="st0" cx="124.2" cy="61.5" r="5.2"/>
	<circle class="st0" cx="7.5" cy="94.6" r="3.5"/>
	<circle class="st0" cx="138.1" cy="58" r="1.7"/>
	<path class="st0" d="M88.2,31.9c1.4-4.1,5.3-7,9.8-7c4.5,0,8.4,2.9,9.8,7"/>
	<circle class="st0" cx="96.3" cy="85.9" r="1.7"/>
	<circle class="st0" cx="141.6" cy="120.7" r="1.7"/>
	<circle class="st0" cx="12.8" cy="103.3" r="1.7"/>
</g>
</svg>
