<?xml version="1.0" encoding="utf-8"?>
<!-- Generator: Adobe Illustrator 19.1.0, SVG Export Plug-In . SVG Version: 6.00 Build 0)  -->
<svg version="1.1" id="Layer_1" xmlns="http://www.w3.org/2000/svg" xmlns:xlink="http://www.w3.org/1999/xlink" x="0px" y="0px"
	 viewBox="0 0 255.2 245" style="enable-background:new 0 0 255.2 245;" xml:space="preserve">
<style type="text/css">
	.st0{fill:#FFFFFF;stroke:#010101;stroke-width:5;stroke-miterlimit:10;}
	.st1{fill:none;stroke:#010101;stroke-width:5;stroke-miterlimit:10;}
</style>
<g>
	<polygon class="st0" points="54.3,164.5 54.3,175.8 65.6,175.8 133.4,108 122.1,96.7 	"/>
	<polygon class="st0" points="220,2.5 140,2.5 140,34.5 220,34.5 236,18.5 	"/>
	<polygon class="st0" points="196.1,153.8 139.5,210.4 162.2,233 218.7,176.4 218.7,153.8 	"/>
	<polygon class="st0" points="252.7,102.4 252.7,102.4 162.2,11.9 128.2,45.8 218.7,136.3 252.7,136.3 	"/>
	<path class="st0" d="M139.5,2.5c-17.7,0-32,14.3-32,32v176c0,17.7,14.3,32,32,32c17.7,0,32-14.3,32-32v-176
		C171.5,16.8,157.2,2.5,139.5,2.5z"/>
	<polygon class="st0" points="155.5,44.5 145.5,44.5 145.5,34.5 133.5,34.5 133.5,44.5 123.5,44.5 123.5,56.5 133.5,56.5 
		133.5,66.5 145.5,66.5 145.5,56.5 155.5,56.5 	"/>
	<polygon class="st0" points="11.5,114.5 3.5,122.5 11.5,130.5 107.4,130.5 107.4,114.5 	"/>
	<g>
		<g>
			<line class="st1" x1="91.5" y1="114.5" x2="107.5" y2="130.5"/>
		</g>
		<g>
			<line class="st1" x1="75.5" y1="114.5" x2="91.5" y2="130.5"/>
		</g>
		<g>
			<line class="st1" x1="59.5" y1="114.5" x2="75.5" y2="130.5"/>
		</g>
		<g>
			<line class="st1" x1="43.5" y1="114.5" x2="59.5" y2="130.5"/>
		</g>
		<g>
			<line class="st1" x1="27.5" y1="114.5" x2="43.5" y2="130.5"/>
		</g>
		<g>
			<line class="st1" x1="11.5" y1="114.5" x2="27.5" y2="130.5"/>
		</g>
	</g>
	<line class="st1" x1="208.2" y1="72.2" x2="230.8" y2="94.9"/>
</g>
</svg>
