<?xml version="1.0" encoding="utf-8"?>
<!-- Generator: Adobe Illustrator 19.2.1, SVG Export Plug-In . SVG Version: 6.00 Build 0)  -->
<svg version="1.1" id="Layer_1" xmlns="http://www.w3.org/2000/svg" xmlns:xlink="http://www.w3.org/1999/xlink" x="0px" y="0px"
	 viewBox="0 0 59.1 58" style="enable-background:new 0 0 59.1 58;" xml:space="preserve">
<style type="text/css">
	.st0{fill:#FFFFFF;stroke:#072C49;stroke-width:1.5;stroke-miterlimit:10;}
	.st1{fill:none;stroke:#072C49;stroke-width:1.5;stroke-miterlimit:10;}
	.st2{fill:#FFFFFF;}
</style>
<g>
	<polyline class="st0" points="33.3,14.3 33.3,11.4 26.6,11.4 26.6,14.3 	"/>
	<path class="st1" d="M32.2,4.1h-4.6c-2,0-3.7,1.7-3.7,3.7v0c0,2,1.7,3.7,3.7,3.7h4.6c2,0,3.7-1.7,3.7-3.7v0
		C35.9,5.7,34.3,4.1,32.2,4.1z"/>
	<polyline class="st0" points="44.8,20.4 46,18.9 43.5,16.9 42.4,18.4 	"/>
	<path class="st0" d="M47.6,16.2l-1.9-1.5c-0.7-0.6-1.7-0.5-2.3,0.2v0c-0.6,0.7-0.5,1.7,0.2,2.3l1.9,1.5c0.7,0.6,1.7,0.5,2.3-0.2
		l0,0C48.4,17.8,48.3,16.8,47.6,16.2z"/>
	<circle class="st1" cx="30.1" cy="34.6" r="20.3"/>
	<circle class="st2" cx="30.1" cy="34.6" r="17.8"/>
	<path class="st0" d="M31.8,35.1L30,26L28.2,35c-0.1,0.2-0.2,0.5-0.2,0.8c0,0.9,0.9,1.7,2,1.7c1.1,0,2-0.8,2-1.7
		C32,35.5,31.9,35.3,31.8,35.1z"/>
	<g>
		<g>
			<line class="st1" x1="30.1" y1="21.1" x2="30.1" y2="18"/>
			<line class="st1" x1="30.1" y1="51.2" x2="30.1" y2="48.1"/>
		</g>
		<g>
			<line class="st1" x1="43.6" y1="34.6" x2="46.6" y2="34.6"/>
			<line class="st1" x1="13.5" y1="34.6" x2="16.6" y2="34.6"/>
		</g>
	</g>
	<g>
		<g>
			<line class="st1" x1="41.7" y1="27.6" x2="44.3" y2="26.1"/>
			<line class="st1" x1="15.9" y1="43.2" x2="18.5" y2="41.6"/>
		</g>
		<g>
			<line class="st1" x1="37.1" y1="46.2" x2="38.6" y2="48.8"/>
			<line class="st1" x1="21.5" y1="20.4" x2="23.1" y2="23"/>
		</g>
	</g>
	<g>
		<g>
			<line class="st1" x1="36.8" y1="22.9" x2="38.3" y2="20.2"/>
			<line class="st1" x1="21.8" y1="49" x2="23.3" y2="46.3"/>
		</g>
		<g>
			<line class="st1" x1="41.8" y1="41.3" x2="44.4" y2="42.8"/>
			<line class="st1" x1="15.7" y1="26.4" x2="18.3" y2="27.9"/>
		</g>
	</g>
</g>
</svg>
