<?xml version="1.0" encoding="utf-8"?>
<!-- Generator: Adobe Illustrator 19.1.0, SVG Export Plug-In . SVG Version: 6.00 Build 0)  -->
<svg version="1.1" id="Layer_1" xmlns="http://www.w3.org/2000/svg" xmlns:xlink="http://www.w3.org/1999/xlink" x="0px" y="0px"
	 viewBox="0 0 308.1 260.7" style="enable-background:new 0 0 308.1 260.7;" xml:space="preserve">
<style type="text/css">
	.st0{fill:#FFFFFF;stroke:#010101;stroke-width:5;stroke-miterlimit:10;}
	.st1{fill:none;stroke:#010101;stroke-width:5;stroke-miterlimit:10;}
</style>
<g>
	<polygon class="st0" points="113.9,114.8 156.9,258.2 171.3,258.2 142.6,114.8 	"/>
	<polygon class="st0" points="115.1,114.8 72.1,258.2 57.7,258.2 86.4,114.8 	"/>
	<circle class="st1" cx="114.5" cy="114.5" r="112"/>
	<circle class="st0" cx="114.5" cy="114.5" r="80"/>
	<circle class="st0" cx="114.5" cy="114.5" r="48"/>
	<circle class="st0" cx="114.5" cy="114.5" r="16"/>
	<line class="st1" x1="114.5" y1="114.5" x2="306.4" y2="114.5"/>
	<g>
		<g>
			<line class="st1" x1="290.4" y1="114.5" x2="306.4" y2="98.5"/>
		</g>
		<g>
			<line class="st1" x1="274.4" y1="114.5" x2="290.4" y2="98.5"/>
		</g>
		<g>
			<line class="st1" x1="258.4" y1="114.5" x2="274.4" y2="98.5"/>
		</g>
	</g>
	<g>
		<g>
			<line class="st1" x1="290.4" y1="114.5" x2="306.4" y2="130.5"/>
		</g>
		<g>
			<line class="st1" x1="274.4" y1="114.5" x2="290.4" y2="130.5"/>
		</g>
		<g>
			<line class="st1" x1="258.4" y1="114.5" x2="274.4" y2="130.5"/>
		</g>
	</g>
	<line class="st1" x1="76.8" y1="242.5" x2="152.2" y2="242.5"/>
</g>
</svg>
