<?xml version="1.0" encoding="utf-8"?>
<!-- Generator: Adobe Illustrator 19.1.0, SVG Export Plug-In . SVG Version: 6.00 Build 0)  -->
<svg version="1.1" id="Layer_1" xmlns="http://www.w3.org/2000/svg" xmlns:xlink="http://www.w3.org/1999/xlink" x="0px" y="0px"
	 viewBox="0 0 341 277" style="enable-background:new 0 0 341 277;" xml:space="preserve">
<style type="text/css">
	.st0{fill:#FFFFFF;}
	.st1{fill:none;stroke:#010101;stroke-width:5;stroke-miterlimit:10;}
</style>
<g>
	<polygon class="st0" points="34.5,2.5 34.5,98.5 98.5,98.5 98.5,130.5 130.5,98.5 194.5,98.5 194.5,2.5 	"/>
	<polygon class="st0" points="82.5,114.4 82.5,162.4 50.5,162.4 50.5,178.4 34.5,162.4 2.5,162.4 2.5,114.4 	"/>
	<path class="st1" d="M162.5,268.5h64h40h12h20c8.8,0,16-7.2,16-16c0-4.9-2.2-9.3-5.7-12.2c7.7-1.1,13.7-7.8,13.7-15.8
		c0-4.9-2.2-9.3-5.7-12.2c7.7-1.1,13.7-7.8,13.7-15.8c0-4.9-2.2-9.3-5.7-12.2c7.7-1.1,13.7-7.8,13.7-15.8c0-8.8-7.2-16-16-16h-32
		h-32c10.1-13.4,16-30,16-48c0-8.8-7.2-16-16-16s-16,7.2-16,16c0,26.5-35.5,48-62,48h-18"/>
	<rect x="98.5" y="146.5" class="st0" width="64" height="128"/>
	<rect x="98.5" y="146.5" class="st1" width="64" height="128"/>
	<polygon class="st1" points="34.5,2.5 34.5,98.5 98.5,98.5 98.5,130.5 130.5,98.5 194.5,98.5 194.5,2.5 	"/>
	<polygon class="st1" points="82.5,114.4 82.5,162.4 50.5,162.4 50.5,178.4 34.5,162.4 2.5,162.4 2.5,114.4 	"/>
	<line class="st1" x1="66.5" y1="34.5" x2="163" y2="34.5"/>
	<line class="st1" x1="66.5" y1="50.5" x2="130.5" y2="50.5"/>
	<line class="st1" x1="98.5" y1="66.5" x2="146.5" y2="66.5"/>
	<line class="st1" x1="66.5" y1="66.5" x2="82.5" y2="66.5"/>
	<line class="st1" x1="18.5" y1="130.5" x2="66.5" y2="130.5"/>
	<line class="st1" x1="18.5" y1="146.4" x2="50.5" y2="146.4"/>
</g>
</svg>
