<?xml version="1.0" encoding="utf-8"?>
<!-- Generator: Adobe Illustrator 19.2.1, SVG Export Plug-In . SVG Version: 6.00 Build 0)  -->
<svg version="1.1" id="Layer_1" xmlns="http://www.w3.org/2000/svg" xmlns:xlink="http://www.w3.org/1999/xlink" x="0px" y="0px"
	 viewBox="0 0 147.4 147.4" style="enable-background:new 0 0 147.4 147.4;" xml:space="preserve">
<style type="text/css">
	.st0{fill:none;stroke:#072C49;stroke-width:1.75;stroke-miterlimit:10;}
	.st1{fill:#FFFFFF;stroke:#072C49;stroke-width:1.75;stroke-miterlimit:10;}
	.st2{fill:#BFE3DA;stroke:#072C49;stroke-width:1.75;stroke-miterlimit:10;}
</style>
<g>
	<g>
		<g>
			<path class="st0" d="M122.9,36.8c0,0-1.5,3.6-1.5,4.5v14.9h3V41.2C124.3,40.4,122.9,36.8,122.9,36.8z"/>
			<path class="st0" d="M128.8,39.8c0,0-1.5,3.6-1.5,4.5v11.9h3V44.2C130.3,43.4,128.8,39.8,128.8,39.8z"/>
			<path class="st0" d="M96.1,36.8c0,0,1.5,3.6,1.5,4.5v14.9h-3V41.2C94.7,40.4,96.1,36.8,96.1,36.8z"/>
			<path class="st0" d="M90.2,39.8c0,0,1.5,3.6,1.5,4.5v11.9h-3V44.2C88.7,43.4,90.2,39.8,90.2,39.8z"/>
			<rect x="103.6" y="65" class="st0" width="3" height="3"/>
			<rect x="112.5" y="65" class="st0" width="3" height="3"/>
			<rect x="108" y="65" class="st0" width="3" height="3"/>
			<polygon class="st0" points="125.9,67.3 115.5,66.5 115.5,56.1 125.9,65 			"/>
			<polygon class="st0" points="93.2,67.3 103.6,66.5 103.6,56.1 93.2,65 			"/>
			<path class="st1" d="M133.3,50.2l-17.8-14l0,0l-3-14.2c0-4.1-3-7.4-3-7.4s-3,3.3-3,7.4l-3,14.2l0,0l-17.8,14v4.5l17.8-0.8v12.7h3
				h5.9h3V53.8l17.8,0.8V50.2z"/>
			<line class="st2" x1="106.5" y1="66.5" x2="106.5" y2="56.1"/>
			<line class="st2" x1="112.5" y1="66.5" x2="112.5" y2="56.1"/>
			<line class="st2" x1="105.1" y1="53.1" x2="105.1" y2="36.8"/>
			<line class="st2" x1="114" y1="36.8" x2="114" y2="53.1"/>
			<g>
				<path class="st2" d="M107.7,23.7c0.6-0.2,1.2-0.3,1.9-0.3c0.6,0,1.3,0.1,1.9,0.3"/>
			</g>
			<line class="st2" x1="106.5" y1="21.9" x2="106.5" y2="42.7"/>
			<line class="st2" x1="112.5" y1="21.9" x2="112.5" y2="42.7"/>
		</g>
	</g>
	<g>
		<g>
			<path class="st0" d="M85.7,66.9c0,0-2.9,7-2.9,8.6v28.6h5.7V75.5C88.5,73.9,85.7,66.9,85.7,66.9z"/>
			<path class="st0" d="M97.1,72.6c0,0-2.9,7-2.9,8.6v22.9h5.7V81.2C100,79.7,97.1,72.6,97.1,72.6z"/>
			<path class="st0" d="M34.2,66.9c0,0,2.9,7,2.9,8.6v28.6h-5.7V75.5C31.3,73.9,34.2,66.9,34.2,66.9z"/>
			<path class="st0" d="M22.7,72.6c0,0,2.9,7,2.9,8.6v22.9h-5.7V81.2C19.8,79.7,22.7,72.6,22.7,72.6z"/>
			<rect x="48.5" y="121.3" class="st0" width="5.7" height="5.7"/>
			<rect x="65.7" y="121.3" class="st0" width="5.7" height="5.7"/>
			<rect x="57.1" y="121.3" class="st0" width="5.7" height="5.7"/>
			<polygon class="st0" points="91.4,125.6 71.4,124.2 71.4,104.1 91.4,121.3 			"/>
			<polygon class="st0" points="28.4,125.6 48.5,124.2 48.5,104.1 28.4,121.3 			"/>
			<path class="st1" d="M105.7,92.7l-34.4-27l0,0l-5.7-27.4c0-7.9-5.7-14.3-5.7-14.3s-5.7,6.4-5.7,14.3l-5.7,27.4l0,0l-34.4,27v8.6
				l34.4-1.6v24.5h5.7h11.5h5.7V99.6l34.4,1.6V92.7z"/>
			<line class="st2" x1="54.2" y1="124.2" x2="54.2" y2="104.1"/>
			<line class="st2" x1="65.7" y1="124.2" x2="65.7" y2="104.1"/>
			<line class="st2" x1="51.3" y1="98.4" x2="51.3" y2="66.9"/>
			<line class="st2" x1="68.5" y1="66.9" x2="68.5" y2="98.4"/>
			<g>
				<path class="st2" d="M56.4,41.8c1.1-0.3,2.3-0.5,3.6-0.5c1.2,0,2.4,0.2,3.6,0.5"/>
			</g>
			<line class="st2" x1="54.2" y1="38.3" x2="54.2" y2="78.4"/>
			<line class="st2" x1="65.7" y1="38.3" x2="65.7" y2="78.4"/>
		</g>
	</g>
</g>
</svg>
