<?xml version="1.0" encoding="utf-8"?>
<!-- Generator: Adobe Illustrator 20.1.0, SVG Export Plug-In . SVG Version: 6.00 Build 0)  -->
<svg version="1.1" id="Layer_1" xmlns="http://www.w3.org/2000/svg" xmlns:xlink="http://www.w3.org/1999/xlink" x="0px" y="0px"
	 viewBox="0 0 59.1 58" style="enable-background:new 0 0 59.1 58;" xml:space="preserve">
<style type="text/css">
	.st0{fill:none;stroke:#FFFFFF;stroke-width:1.5;stroke-miterlimit:10;}
	.st1{fill:#FFFFFF;}
	.st2{fill:none;stroke:#FFFFFF;stroke-width:1.5;stroke-linejoin:bevel;stroke-miterlimit:10;}
</style>
<rect x="6.5" y="6" class="st0" width="47.7" height="46"/>
<rect x="6.5" y="6" class="st0" width="47.7" height="46"/>
<line class="st0" x1="6.4" y1="12.8" x2="54.3" y2="12.8"/>
<line class="st0" x1="9.1" y1="9.4" x2="10.8" y2="9.4"/>
<line class="st0" x1="12.5" y1="9.4" x2="14.2" y2="9.4"/>
<line class="st0" x1="15.9" y1="9.4" x2="17.6" y2="9.4"/>
<line class="st0" x1="20.2" y1="6.1" x2="20.2" y2="12"/>
<g>
	<path class="st1" d="M50.2,17.1v5.3H10.6v-5.3H50.2 M51.7,15.6H9.1v8.3h42.6V15.6L51.7,15.6z"/>
</g>
<g>
	<path class="st1" d="M50.2,42.6v5.3H10.6v-5.3H50.2 M51.7,41.1H9.1v8.3h42.6V41.1L51.7,41.1z"/>
</g>
<line class="st0" x1="22.7" y1="9.4" x2="51.7" y2="9.4"/>
<g>
	<g>
		<polyline class="st2" points="11.9,28 11.9,32.5 14.5,36.5 16.7,32.3 16.7,28 		"/>
		<polyline class="st2" points="16.7,28 16.7,32.5 19.3,36.5 21.5,32.3 21.5,28 		"/>
	</g>
	<g>
		<polyline class="st2" points="24.3,28 24.3,32.5 26.8,36.5 29,32.3 29,28 		"/>
		<polyline class="st2" points="29,28 29,32.5 31.6,36.5 33.8,32.3 33.8,28 		"/>
	</g>
	<g>
		<polyline class="st2" points="36.9,28 36.9,32.5 39.4,36.5 41.7,32.3 41.7,28 		"/>
		<polyline class="st2" points="41.7,28 41.7,32.5 44.2,36.5 46.4,32.3 46.4,28 		"/>
	</g>
	<line class="st2" x1="48.2" y1="36" x2="49.9" y2="36"/>
</g>
</svg>
