<?xml version="1.0" encoding="utf-8"?>
<!-- Generator: Adobe Illustrator 19.1.0, SVG Export Plug-In . SVG Version: 6.00 Build 0)  -->
<svg version="1.1" id="Layer_1" xmlns="http://www.w3.org/2000/svg" xmlns:xlink="http://www.w3.org/1999/xlink" x="0px" y="0px"
	 viewBox="0 0 256.4 256.6" style="enable-background:new 0 0 256.4 256.6;" xml:space="preserve">
<style type="text/css">
	.st0{fill:#FFFFFF;}
	.st1{fill:none;}
	.st2{fill:none;stroke:#000000;stroke-width:5;stroke-miterlimit:10;}
	.st3{fill:#FFFFFF;stroke:#000000;stroke-width:5;stroke-miterlimit:10;}
</style>
<g>
	<g>
		<g>
			<circle class="st0" cx="221.8" cy="34.6" r="32"/>
			<g>
				<polygon class="st1" points="3.9,252.6 20.9,247 9.6,235.6 				"/>
				<polyline class="st0" points="26.5,184.7 9.6,235.6 20.9,247 71.7,229.9 				"/>
			</g>
			<polyline class="st1" points="71.7,229.9 244.4,57.3 199.1,12 26.5,184.7 			"/>
			<line class="st1" x1="221.8" y1="34.6" x2="49.1" y2="207.3"/>
		</g>
		<g>
			<path class="st2" d="M199.1,12c12.5-12.5,32.8-12.5,45.3,0c12.5,12.5,12.5,32.8,0,45.3"/>
			<polygon class="st2" points="199.1,12 26.5,184.7 9.6,235.6 3.9,252.6 20.9,247 71.7,229.9 244.4,57.3 			"/>
			<line class="st2" x1="221.8" y1="34.6" x2="49.1" y2="207.3"/>
		</g>
		<g>
			
				<rect x="96.4" y="-16" transform="matrix(-0.7071 0.7071 -0.7071 -0.7071 309.719 127.6833)" class="st3" width="64" height="288"/>
			<g>
				<g>
					<line class="st2" x1="60.5" y1="14.8" x2="49.2" y2="26.2"/>
				</g>
				<g>
					<line class="st2" x1="71.8" y1="26.2" x2="60.5" y2="37.5"/>
				</g>
				<g>
					<line class="st2" x1="83.2" y1="37.5" x2="71.8" y2="48.8"/>
				</g>
				<g>
					<line class="st2" x1="94.5" y1="48.8" x2="83.2" y2="60.1"/>
				</g>
				<g>
					<line class="st2" x1="105.8" y1="60.1" x2="94.5" y2="71.4"/>
				</g>
				<g>
					<line class="st2" x1="117.1" y1="71.4" x2="105.8" y2="82.7"/>
				</g>
				<g>
					<line class="st2" x1="128.4" y1="82.7" x2="117.1" y2="94"/>
				</g>
				<g>
					<line class="st2" x1="139.7" y1="94" x2="128.4" y2="105.4"/>
				</g>
				<g>
					<line class="st2" x1="151" y1="105.4" x2="139.7" y2="116.7"/>
				</g>
				<g>
					<line class="st2" x1="162.4" y1="116.7" x2="151" y2="128"/>
				</g>
				<g>
					<line class="st2" x1="173.7" y1="128" x2="162.4" y2="139.3"/>
				</g>
				<g>
					<line class="st2" x1="185" y1="139.3" x2="173.7" y2="150.6"/>
				</g>
				<g>
					<line class="st2" x1="196.3" y1="150.6" x2="185" y2="161.9"/>
				</g>
				<g>
					<line class="st2" x1="207.6" y1="161.9" x2="196.3" y2="173.2"/>
				</g>
				<g>
					<line class="st2" x1="218.9" y1="173.2" x2="207.6" y2="184.6"/>
				</g>
				<g>
					<line class="st2" x1="230.2" y1="184.6" x2="218.9" y2="195.9"/>
				</g>
				<g>
					<line class="st2" x1="241.6" y1="195.9" x2="230.2" y2="207.2"/>
				</g>
			</g>
			<line class="st2" x1="218.9" y1="241.1" x2="15.3" y2="37.5"/>
		</g>
		<line class="st2" x1="71.7" y1="229.9" x2="26.5" y2="184.7"/>
		<line class="st2" x1="20.9" y1="247" x2="9.6" y2="235.6"/>
	</g>
</g>
</svg>
