<?xml version="1.0" encoding="utf-8"?>
<!-- Generator: Adobe Illustrator 19.1.0, SVG Export Plug-In . SVG Version: 6.00 Build 0)  -->
<svg version="1.1" id="Layer_1" xmlns="http://www.w3.org/2000/svg" xmlns:xlink="http://www.w3.org/1999/xlink" x="0px" y="0px"
	 viewBox="0 0 48.1 29.2" style="enable-background:new 0 0 48.1 29.2;" xml:space="preserve">
<style type="text/css">
	.st0{clip-path:url(#SVGID_2_);fill:#FFFFFF;}
</style>
<g>
	<defs>
		<rect id="SVGID_1_" x="0.3" y="0.4" width="47.5" height="28.5"/>
	</defs>
	<clipPath id="SVGID_2_">
		<use xlink:href="#SVGID_1_"  style="overflow:visible;"/>
	</clipPath>
	<path class="st0" d="M42.8,7.6c0,1.6-1.3,2.9-2.9,2.9s-2.9-1.3-2.9-2.9c0-1.6,1.3-2.9,2.9-2.9S42.8,6,42.8,7.6 M11,7.6
		c0,1.6-1.3,2.9-2.9,2.9S5.2,9.2,5.2,7.6c0-1.6,1.3-2.9,2.9-2.9S11,6,11,7.6 M47.8,7.6c0-4-3.2-7.2-7.2-7.2h-33
		c-4,0-7.2,3.2-7.2,7.2s3.2,7.2,7.2,7.2h33C44.6,14.9,47.8,11.6,47.8,7.6"/>
	<path class="st0" d="M24.1,28.9L24.1,28.9c-1.6,0-2.9-1.3-2.9-2.9c0-1.6,1.3-2.9,2.9-2.9c1.6,0,2.9,1.3,2.9,2.9
		C27,27.6,25.7,28.9,24.1,28.9"/>
</g>
</svg>
