<?xml version="1.0" encoding="utf-8"?>
<!-- Generator: Adobe Illustrator 19.1.0, SVG Export Plug-In . SVG Version: 6.00 Build 0)  -->
<svg version="1.1" id="Layer_1" xmlns="http://www.w3.org/2000/svg" xmlns:xlink="http://www.w3.org/1999/xlink" x="0px" y="0px"
	 viewBox="0 0 261 338" style="enable-background:new 0 0 261 338;" xml:space="preserve">
<style type="text/css">
	.st0{fill:#FFFFFF;stroke:#000000;stroke-width:5;stroke-miterlimit:10;}
	.st1{fill:none;stroke:#000000;stroke-width:5;stroke-miterlimit:10;}
</style>
<polygon class="st0" points="194.1,50.4 194.1,66.4 66.1,66.4 66.1,50.4 18.1,50.4 18.1,319.4 242.1,319.4 242.1,50.4 "/>
<g>
	<g>
		<polyline class="st1" points="242.5,66.5 258.5,66.5 258.5,335.5 2.5,335.5 2.5,66.5 18.5,66.5 		"/>
		<path class="st1" d="M162.5,34.5c0-17.7-14.3-32-32-32s-32,14.3-32,32h-32v32h128v-32H162.5z M130.5,50.5c-8.8,0-16-7.2-16-16
			c0-8.8,7.2-16,16-16s16,7.2,16,16C146.5,43.3,139.3,50.5,130.5,50.5z"/>
	</g>
	<polyline class="st1" points="242.5,271.5 194.5,271.5 194.5,319.5 	"/>
	<line class="st1" x1="194.5" y1="319.5" x2="242.5" y2="271.5"/>
</g>
<g>
	<g>
		<line class="st1" x1="50.5" y1="182.5" x2="162" y2="182.5"/>
	</g>
	<g>
		<line class="st1" x1="50.5" y1="166.5" x2="162" y2="166.5"/>
	</g>
	<g>
		<line class="st1" x1="50.5" y1="150.5" x2="162" y2="150.5"/>
	</g>
	<g>
		<line class="st1" x1="50.5" y1="134.5" x2="162" y2="134.5"/>
	</g>
	<g>
		<line class="st1" x1="50.5" y1="118.5" x2="162" y2="118.5"/>
	</g>
</g>
<g>
	<g>
		<line class="st1" x1="180.3" y1="182.5" x2="213.3" y2="182.5"/>
	</g>
	<g>
		<line class="st1" x1="180.3" y1="166.5" x2="213.3" y2="166.5"/>
	</g>
	<g>
		<line class="st1" x1="180.3" y1="150.5" x2="213.3" y2="150.5"/>
	</g>
	<g>
		<line class="st1" x1="180.3" y1="134.5" x2="213.3" y2="134.5"/>
	</g>
	<g>
		<line class="st1" x1="180.3" y1="118.5" x2="213.3" y2="118.5"/>
	</g>
</g>
</svg>
